<svg width="432" height="186" viewBox="0 0 432 186" fill="none" xmlns="http://www.w3.org/2000/svg">
<g filter="url(#filter0_d)">
<rect x="4" width="212" height="177.83" rx="4" fill="white"/>
<rect x="4.5" y="0.5" width="211" height="176.83" rx="3.5" stroke="black" stroke-opacity="0.21"/>
</g>
<path d="M76.8024 119.199C81.9217 119.199 84.4814 114.989 84.4814 106.569C84.4814 105.66 84.414 104.666 84.2793 103.588C83.8415 106.215 82.7469 108.203 80.9955 109.55C79.4462 110.729 77.476 111.318 75.0847 111.318C72.0198 111.318 69.5106 110.358 67.5572 108.438C65.6374 106.485 64.6776 103.993 64.6776 100.961C64.6776 97.8629 65.7722 95.3537 67.9614 93.4339C70.1506 91.5142 72.9965 90.5543 76.4992 90.5543C80.4735 90.5543 83.791 92.0699 86.4517 95.1011C89.1461 98.1997 90.4933 102.191 90.4933 107.074C90.4933 115.528 87.9673 121.001 82.9153 123.493C81.2313 124.302 79.3957 124.706 77.4086 124.706C75.4552 124.706 73.7375 124.453 72.2556 123.948C70.8073 123.443 69.5443 122.736 68.4666 121.826C66.1763 119.906 65.0312 117.397 65.0312 114.299H71.2452C71.3125 115.814 71.8514 117.01 72.8618 117.886C73.9059 118.761 75.2194 119.199 76.8024 119.199ZM76.5498 96.0105C74.9331 96.0105 73.5691 96.482 72.4576 97.425C71.3799 98.3344 70.841 99.6142 70.841 101.265C70.841 102.881 71.3799 104.144 72.4576 105.054C73.5691 105.963 74.9331 106.418 76.5498 106.418C78.1327 106.418 79.4799 105.946 80.5914 105.003C81.7028 103.993 82.2585 102.73 82.2585 101.214C82.2585 99.6647 81.7028 98.4017 80.5914 97.425C79.5136 96.482 78.1664 96.0105 76.5498 96.0105ZM107.637 119.199C112.757 119.199 115.316 114.989 115.316 106.569C115.316 105.66 115.249 104.666 115.114 103.588C114.676 106.215 113.582 108.203 111.83 109.55C110.281 110.729 108.311 111.318 105.92 111.318C102.855 111.318 100.346 110.358 98.3922 108.438C96.4724 106.485 95.5125 103.993 95.5125 100.961C95.5125 97.8629 96.6071 95.3537 98.7963 93.4339C100.986 91.5142 103.831 90.5543 107.334 90.5543C111.308 90.5543 114.626 92.0699 117.287 95.1011C119.981 98.1997 121.328 102.191 121.328 107.074C121.328 115.528 118.802 121.001 113.75 123.493C112.066 124.302 110.231 124.706 108.244 124.706C106.29 124.706 104.572 124.453 103.091 123.948C101.642 123.443 100.379 122.736 99.3015 121.826C97.0113 119.906 95.8662 117.397 95.8662 114.299H102.08C102.147 115.814 102.686 117.01 103.697 117.886C104.741 118.761 106.054 119.199 107.637 119.199ZM107.385 96.0105C105.768 96.0105 104.404 96.482 103.293 97.425C102.215 98.3344 101.676 99.6142 101.676 101.265C101.676 102.881 102.215 104.144 103.293 105.054C104.404 105.963 105.768 106.418 107.385 106.418C108.968 106.418 110.315 105.946 111.426 105.003C112.538 103.993 113.093 102.73 113.093 101.214C113.093 99.6647 112.538 98.4017 111.426 97.425C110.349 96.482 109.001 96.0105 107.385 96.0105ZM129.025 124.453C127.813 124.453 126.819 124.083 126.044 123.342C125.27 122.601 124.882 121.658 124.882 120.513C124.882 119.368 125.27 118.408 126.044 117.633C126.819 116.858 127.813 116.471 129.025 116.471C130.238 116.471 131.248 116.858 132.056 117.633C132.865 118.408 133.269 119.368 133.269 120.513C133.269 121.658 132.865 122.601 132.056 123.342C131.248 124.083 130.238 124.453 129.025 124.453ZM145.588 104.043C147.406 103.74 149.141 103.588 150.791 103.588C154.193 103.588 156.904 104.414 158.925 106.064C160.946 107.681 161.956 110.021 161.956 113.086C161.956 116.421 160.828 119.165 158.571 121.321C156.18 123.578 153.166 124.706 149.528 124.706C145.925 124.706 143.045 123.796 140.889 121.978C138.633 120.092 137.471 117.498 137.403 114.198H143.516C143.516 115.915 144.089 117.178 145.234 117.987C146.379 118.795 147.844 119.199 149.629 119.199C151.414 119.199 152.879 118.627 154.025 117.481C155.203 116.303 155.793 114.838 155.793 113.086C155.793 109.752 153.536 108.085 149.023 108.085H139.02L140.536 91.2111H160.188V96.6672H146.295L145.588 104.043Z" fill="#061798"/>
<path d="M92.1619 47.8325H94.2095L98.7102 61.249H96.9611L95.8093 57.8362H90.4768L89.325 61.249H87.5546L92.1619 47.8325ZM90.9247 56.5138H95.3827L93.1644 49.9015L90.9247 56.5138ZM98.5429 47.8325H108.973V49.2829H104.601V61.249H102.916V49.2829H98.5429V47.8325ZM113.409 47.8325H115.456L119.957 61.249H118.208L117.056 57.8362H111.723L110.572 61.249H108.801L113.409 47.8325ZM112.171 56.5138H116.629L114.411 49.9015L112.171 56.5138ZM132.012 51.6719C132.012 52.781 131.714 53.6769 131.117 54.3594C130.534 55.042 129.666 55.4828 128.514 55.6819L132.354 61.249H130.178L126.701 55.7672H124.355V61.249H122.67V47.8325H127.341C128.849 47.8325 130 48.1951 130.797 48.9203C131.607 49.6455 132.012 50.5627 132.012 51.6719ZM127.213 54.5941C128.223 54.5941 128.984 54.3523 129.496 53.8688C130.022 53.3711 130.285 52.7241 130.285 51.9278C130.285 51.1173 130.029 50.4774 129.517 50.0081C129.019 49.5246 128.294 49.2829 127.341 49.2829H124.355V54.5941H127.213Z" fill="black"/>
<g filter="url(#filter1_d)">
<rect x="216" width="212" height="177.83" rx="4" fill="white"/>
<rect x="216.5" y="0.5" width="211" height="176.83" rx="3.5" stroke="black" stroke-opacity="0.21"/>
</g>
<path d="M308.802 119.199C313.922 119.199 316.481 114.989 316.481 106.569C316.481 105.66 316.414 104.666 316.279 103.588C315.841 106.215 314.747 108.203 312.996 109.55C311.446 110.729 309.476 111.318 307.085 111.318C304.02 111.318 301.511 110.358 299.557 108.438C297.637 106.485 296.678 103.993 296.678 100.961C296.678 97.8629 297.772 95.3537 299.961 93.4339C302.151 91.5142 304.997 90.5543 308.499 90.5543C312.473 90.5543 315.791 92.0699 318.452 95.1011C321.146 98.1997 322.493 102.191 322.493 107.074C322.493 115.528 319.967 121.001 314.915 123.493C313.231 124.302 311.396 124.706 309.409 124.706C307.455 124.706 305.737 124.453 304.256 123.948C302.807 123.443 301.544 122.736 300.467 121.826C298.176 119.906 297.031 117.397 297.031 114.299H303.245C303.313 115.814 303.851 117.01 304.862 117.886C305.906 118.761 307.219 119.199 308.802 119.199ZM308.55 96.0105C306.933 96.0105 305.569 96.482 304.458 97.425C303.38 98.3344 302.841 99.6142 302.841 101.265C302.841 102.881 303.38 104.144 304.458 105.054C305.569 105.963 306.933 106.418 308.55 106.418C310.133 106.418 311.48 105.946 312.591 105.003C313.703 103.993 314.259 102.73 314.259 101.214C314.259 99.6647 313.703 98.4017 312.591 97.425C311.514 96.482 310.166 96.0105 308.55 96.0105ZM346.306 100.204C346.138 98.8901 345.666 97.8629 344.891 97.1219C344.117 96.3473 343.039 95.9599 341.658 95.9599C340.311 95.9599 339.115 96.2631 338.071 96.8693C337.061 97.4419 336.185 98.2839 335.444 99.3953C333.962 101.686 333.221 104.784 333.221 108.691C333.221 110.139 333.272 111.234 333.373 111.975C333.743 109.078 334.838 106.956 336.657 105.609C338.24 104.464 340.21 103.892 342.567 103.892C345.599 103.892 348.108 104.868 350.095 106.822C352.048 108.708 353.025 111.2 353.025 114.299C353.025 117.397 351.931 119.906 349.741 121.826C347.552 123.746 344.689 124.706 341.153 124.706C337.044 124.706 333.693 123.157 331.099 120.058C328.506 116.959 327.209 113.002 327.209 108.186C327.209 102.595 328.506 98.2333 331.099 95.1011C333.625 92.0699 337.061 90.5543 341.406 90.5543C344.706 90.5543 347.367 91.43 349.388 93.1813C351.442 94.9664 352.537 97.3071 352.671 100.204H346.306ZM341.153 108.792C339.536 108.792 338.172 109.28 337.061 110.257C335.983 111.2 335.444 112.463 335.444 114.046C335.444 115.629 335.983 116.892 337.061 117.835C338.172 118.744 339.519 119.199 341.102 119.199C342.719 119.199 344.083 118.744 345.195 117.835C346.306 116.892 346.862 115.629 346.862 114.046C346.862 112.463 346.289 111.166 345.144 110.156C344.1 109.247 342.77 108.792 341.153 108.792Z" fill="#061798"/>
<path d="M267.887 35.9162L272.409 45.0028L276.889 35.9162H279.256V49.3328H277.571V38.3052L272.964 47.6477H271.833L267.162 38.1558V49.3328H265.477V35.9162H267.887ZM289.871 42.7205C289.871 41.7962 289.679 41.1349 289.295 40.7368C288.911 40.3386 288.35 40.1395 287.61 40.1395C286.885 40.1395 286.295 40.2888 285.84 40.5875C285.399 40.8719 285.179 41.3269 285.179 41.9526H283.323C283.323 40.3884 284.162 39.4214 285.84 39.0517C286.352 38.9379 286.906 38.8811 287.504 38.8811C288.769 38.8811 289.757 39.201 290.468 39.8409C291.179 40.4808 291.535 41.4549 291.535 42.7631V49.3328H290.085L289.914 47.6264C289.288 48.9204 288.158 49.5674 286.522 49.5674C285.427 49.5674 284.546 49.2617 283.877 48.6502C283.223 48.0387 282.896 47.278 282.896 46.3679C282.896 45.4578 283.259 44.7468 283.984 44.2349C284.724 43.723 285.641 43.467 286.736 43.467C287.831 43.467 288.876 43.6519 289.871 44.0216V42.7205ZM289.871 45.0881C288.862 44.8037 287.98 44.6615 287.226 44.6615C286.473 44.6615 285.861 44.7966 285.392 45.0668C284.923 45.3369 284.688 45.7635 284.688 46.3466C284.688 47.6264 285.413 48.2663 286.864 48.2663C287.688 48.2663 288.392 47.9748 288.975 47.3917C289.573 46.7945 289.871 46.0266 289.871 45.0881ZM300.826 49.0341C299.603 49.6029 298.486 49.7238 297.477 49.3968C296.752 49.1692 296.24 48.6929 295.941 47.9676C295.785 47.6121 295.706 47.1855 295.706 46.6878V40.4168H294.064V39.137H295.706V36.3001H297.37V39.137H300.57V40.4168H297.37V46.6665C297.37 47.7046 297.854 48.2236 298.821 48.2236C299.347 48.2236 299.937 48.0956 300.591 47.8397L300.826 49.0341ZM305.198 41.0141C305.88 39.5921 307.011 38.8811 308.589 38.8811C309.798 38.8811 310.736 39.2792 311.405 40.0755C312.087 40.8719 312.429 41.9597 312.429 43.339V49.3328H310.765V43.339C310.765 42.3579 310.53 41.6184 310.061 41.1207C309.606 40.623 308.945 40.3742 308.077 40.3742C307.21 40.3742 306.513 40.7439 305.987 41.4833C305.461 42.2085 305.198 43.2182 305.198 44.5122V49.3328H303.513V34.807H305.198V41.0141ZM319.905 48.2023C321.313 48.2023 322.116 47.5837 322.315 46.3466H324.043C323.887 47.3704 323.432 48.1667 322.678 48.7355C321.939 49.2901 321.014 49.5674 319.905 49.5674C318.54 49.5674 317.431 49.0839 316.578 48.117C315.724 47.1358 315.298 45.8346 315.298 44.2136C315.298 42.5925 315.724 41.2985 316.578 40.3315C317.445 39.3645 318.59 38.8811 320.012 38.8811C321.448 38.8811 322.515 39.4356 323.211 40.5448C323.922 41.654 324.171 43.0049 323.958 44.5975H316.983C316.983 45.6498 317.239 46.5172 317.751 47.1998C318.263 47.8681 318.981 48.2023 319.905 48.2023ZM321.142 40.4808C320.815 40.3102 320.417 40.2249 319.948 40.2249C319.08 40.2249 318.391 40.5235 317.879 41.1207C317.381 41.7037 317.09 42.4361 317.004 43.3177H322.443C322.443 41.8957 322.01 40.9501 321.142 40.4808ZM328.984 41.0994C329.653 39.6205 330.797 38.8811 332.418 38.8811C333.3 38.8811 334.039 39.1015 334.637 39.5423C335.234 39.9689 335.668 40.5661 335.938 41.334C336.578 39.6987 337.765 38.8811 339.5 38.8811C340.723 38.8811 341.668 39.2792 342.337 40.0755C343.005 40.8719 343.339 41.9597 343.339 43.339V49.3328H341.676V43.339C341.676 42.3579 341.441 41.6184 340.972 41.1207C340.517 40.623 339.855 40.3742 338.988 40.3742C338.121 40.3742 337.445 40.7297 336.962 41.4407C336.492 42.1517 336.258 43.1328 336.258 44.3842V49.3328H334.594V43.339C334.594 42.3579 334.359 41.6184 333.89 41.1207C333.435 40.623 332.781 40.3742 331.928 40.3742C331.075 40.3742 330.385 40.7226 329.859 41.4193C329.333 42.1161 329.055 43.0831 329.027 44.3202V49.3328H327.342V39.137H328.792L328.984 41.0994ZM353.611 42.7205C353.611 41.7962 353.419 41.1349 353.035 40.7368C352.651 40.3386 352.09 40.1395 351.35 40.1395C350.625 40.1395 350.035 40.2888 349.58 40.5875C349.139 40.8719 348.919 41.3269 348.919 41.9526H347.063C347.063 40.3884 347.902 39.4214 349.58 39.0517C350.092 38.9379 350.646 38.8811 351.244 38.8811C352.509 38.8811 353.497 39.201 354.208 39.8409C354.919 40.4808 355.275 41.4549 355.275 42.7631V49.3328H353.825L353.654 47.6264C353.028 48.9204 351.898 49.5674 350.262 49.5674C349.167 49.5674 348.286 49.2617 347.618 48.6502C346.963 48.0387 346.636 47.278 346.636 46.3679C346.636 45.4578 346.999 44.7468 347.724 44.2349C348.464 43.723 349.381 43.467 350.476 43.467C351.571 43.467 352.616 43.6519 353.611 44.0216V42.7205ZM353.611 45.0881C352.602 44.8037 351.72 44.6615 350.966 44.6615C350.213 44.6615 349.601 44.7966 349.132 45.0668C348.663 45.3369 348.428 45.7635 348.428 46.3466C348.428 47.6264 349.153 48.2663 350.604 48.2663C351.428 48.2663 352.132 47.9748 352.715 47.3917C353.313 46.7945 353.611 46.0266 353.611 45.0881ZM364.566 49.0341C363.343 49.6029 362.226 49.7238 361.217 49.3968C360.492 49.1692 359.98 48.6929 359.681 47.9676C359.525 47.6121 359.446 47.1855 359.446 46.6878V40.4168H357.804V39.137H359.446V36.3001H361.11V39.137H364.31V40.4168H361.11V46.6665C361.11 47.7046 361.594 48.2236 362.561 48.2236C363.087 48.2236 363.677 48.0956 364.331 47.8397L364.566 49.0341ZM367.359 39.1157H369.044V49.3328H367.359V39.1157ZM368.191 36.7267C367.85 36.7267 367.58 36.6343 367.381 36.4494C367.196 36.2504 367.103 35.9944 367.103 35.6816C367.103 35.3545 367.196 35.0985 367.381 34.9137C367.58 34.7146 367.85 34.6151 368.191 34.6151C368.533 34.6151 368.803 34.7146 369.002 34.9137C369.215 35.0985 369.322 35.3545 369.322 35.6816C369.322 35.9944 369.215 36.2504 369.002 36.4494C368.803 36.6343 368.533 36.7267 368.191 36.7267ZM377.018 38.8811C378.227 38.8811 379.187 39.1939 379.898 39.8196C380.609 40.431 381.071 41.1989 381.284 42.1232L379.578 42.2725C379.393 41.6753 379.094 41.2131 378.682 40.8861C378.27 40.5448 377.815 40.3742 377.317 40.3742C376.407 40.3742 375.667 40.7154 375.099 41.398C374.544 42.0806 374.267 43.012 374.267 44.1922C374.267 45.3583 374.537 46.2968 375.077 47.0078C375.632 47.7188 376.314 48.0743 377.125 48.0743C377.95 48.0743 378.561 47.8894 378.959 47.5197C379.372 47.1358 379.578 46.5954 379.578 45.8986H381.306C381.306 46.9936 380.922 47.8823 380.154 48.5649C379.4 49.2332 378.412 49.5674 377.189 49.5674C375.895 49.5674 374.793 49.0768 373.883 48.0956C372.987 47.1144 372.539 45.8133 372.539 44.1922C372.539 42.5569 372.987 41.2629 373.883 40.3102C374.779 39.3574 375.824 38.8811 377.018 38.8811ZM384.071 41.6326C384.071 40.7937 384.426 40.1253 385.137 39.6276C385.863 39.1299 386.837 38.8811 388.06 38.8811C389.283 38.8811 390.235 39.137 390.918 39.6489C391.615 40.1609 391.977 40.8079 392.006 41.59H390.363C390.235 40.6657 389.453 40.2035 388.017 40.2035C387.32 40.2035 386.78 40.3599 386.396 40.6728C386.026 40.9856 385.841 41.3269 385.841 41.6966C385.841 42.0521 385.984 42.3579 386.268 42.6138C386.552 42.8556 387.007 43.0689 387.633 43.2537L389.681 43.9363C390.548 44.2065 391.209 44.5548 391.664 44.9814C392.134 45.3938 392.368 45.9697 392.368 46.7092C392.368 47.4344 391.992 48.0956 391.238 48.6929C390.484 49.2759 389.432 49.5674 388.081 49.5674C386.73 49.5674 385.678 49.2688 384.924 48.6715C384.171 48.0601 383.772 47.278 383.73 46.3252H385.351C385.379 46.9651 385.635 47.4486 386.119 47.7757C386.616 48.0885 387.235 48.2449 387.974 48.2449C388.714 48.2449 389.325 48.0885 389.809 47.7757C390.292 47.4628 390.534 47.0931 390.534 46.6665C390.534 46.2257 390.392 45.8915 390.107 45.664C389.823 45.4365 389.361 45.2374 388.721 45.0668L386.737 44.4055C384.96 43.8794 384.071 42.9551 384.071 41.6326ZM245.855 61.9162H254.109V63.3666H247.54V67.8673H253.725V69.2964H247.54V73.861H254.109V75.3328H245.855V61.9162ZM266.044 75.3328H263.996L261.074 71.472L258.301 75.3328H256.253L260.114 70.2349L256.253 65.1157H258.301L261.223 68.9551L264.018 65.1157H266.065L262.162 70.2349L266.044 75.3328ZM274.101 75.0341C272.878 75.6029 271.761 75.7238 270.752 75.3968C270.027 75.1692 269.515 74.6929 269.216 73.9676C269.06 73.6121 268.981 73.1855 268.981 72.6878V66.4168H267.339V65.137H268.981V62.3001H270.645V65.137H273.845V66.4168H270.645V72.6665C270.645 73.7046 271.129 74.2236 272.096 74.2236C272.622 74.2236 273.212 74.0956 273.866 73.8397L274.101 75.0341ZM280.307 74.2023C281.715 74.2023 282.518 73.5837 282.717 72.3466H284.445C284.289 73.3704 283.834 74.1667 283.08 74.7355C282.341 75.2901 281.416 75.5674 280.307 75.5674C278.942 75.5674 277.833 75.0839 276.98 74.117C276.127 73.1358 275.7 71.8346 275.7 70.2136C275.7 68.5925 276.127 67.2985 276.98 66.3315C277.847 65.3645 278.992 64.8811 280.414 64.8811C281.85 64.8811 282.917 65.4356 283.613 66.5448C284.324 67.654 284.573 69.0049 284.36 70.5975H277.385C277.385 71.6498 277.641 72.5172 278.153 73.1998C278.665 73.8681 279.383 74.2023 280.307 74.2023ZM281.544 66.4808C281.217 66.3102 280.819 66.2249 280.35 66.2249C279.482 66.2249 278.793 66.5235 278.281 67.1207C277.783 67.7037 277.492 68.4361 277.406 69.3177H282.845C282.845 67.8957 282.412 66.9501 281.544 66.4808ZM289.386 67.0994C290.055 65.6205 291.199 64.8811 292.82 64.8811C294.029 64.8811 294.968 65.2792 295.636 66.0755C296.319 66.8719 296.66 67.9597 296.66 69.339V75.3328H294.996V69.339C294.996 68.3579 294.761 67.6184 294.292 67.1207C293.837 66.623 293.183 66.3742 292.33 66.3742C291.477 66.3742 290.787 66.7226 290.261 67.4193C289.735 68.1161 289.457 69.0831 289.429 70.3202V75.3328H287.744V65.137H289.194L289.386 67.0994ZM300.084 67.6326C300.084 66.7937 300.44 66.1253 301.151 65.6276C301.876 65.1299 302.85 64.8811 304.073 64.8811C305.296 64.8811 306.248 65.137 306.931 65.6489C307.628 66.1609 307.99 66.8079 308.019 67.59H306.376C306.248 66.6657 305.466 66.2035 304.03 66.2035C303.333 66.2035 302.793 66.3599 302.409 66.6728C302.039 66.9856 301.854 67.3269 301.854 67.6966C301.854 68.0521 301.997 68.3579 302.281 68.6138C302.565 68.8556 303.021 69.0689 303.646 69.2537L305.694 69.9363C306.561 70.2065 307.223 70.5548 307.678 70.9814C308.147 71.3938 308.381 71.9697 308.381 72.7092C308.381 73.4344 308.005 74.0956 307.251 74.6929C306.497 75.2759 305.445 75.5674 304.094 75.5674C302.743 75.5674 301.691 75.2688 300.937 74.6715C300.184 74.0601 299.785 73.278 299.743 72.3252H301.364C301.392 72.9651 301.648 73.4486 302.132 73.7757C302.629 74.0885 303.248 74.2449 303.987 74.2449C304.727 74.2449 305.338 74.0885 305.822 73.7757C306.305 73.4628 306.547 73.0931 306.547 72.6665C306.547 72.2257 306.405 71.8915 306.12 71.664C305.836 71.4365 305.374 71.2374 304.734 71.0668L302.75 70.4055C300.973 69.8794 300.084 68.9551 300.084 67.6326ZM311.951 65.1157H313.636V75.3328H311.951V65.1157ZM312.783 62.7267C312.442 62.7267 312.172 62.6343 311.973 62.4494C311.788 62.2504 311.695 61.9944 311.695 61.6816C311.695 61.3545 311.788 61.0985 311.973 60.9137C312.172 60.7146 312.442 60.6151 312.783 60.6151C313.125 60.6151 313.395 60.7146 313.594 60.9137C313.807 61.0985 313.914 61.3545 313.914 61.6816C313.914 61.9944 313.807 62.2504 313.594 62.4494C313.395 62.6343 313.125 62.7267 312.783 62.7267ZM321.888 64.8811C323.31 64.8811 324.454 65.3432 325.322 66.2675C326.203 67.1918 326.644 68.5143 326.644 70.2349C326.644 71.9413 326.203 73.2566 325.322 74.1809C324.454 75.1052 323.31 75.5674 321.888 75.5674C320.466 75.5674 319.314 75.1052 318.432 74.1809C317.565 73.2566 317.131 71.9413 317.131 70.2349C317.131 68.5143 317.565 67.1918 318.432 66.2675C319.314 65.3432 320.466 64.8811 321.888 64.8811ZM324.938 70.2349C324.938 69.012 324.682 68.0592 324.17 67.3767C323.658 66.6799 322.904 66.3315 321.909 66.3315C320.928 66.3315 320.174 66.6799 319.648 67.3767C319.122 68.0592 318.859 69.012 318.859 70.2349C318.859 71.4436 319.108 72.3963 319.605 73.0931C320.103 73.7757 320.842 74.117 321.824 74.117C322.819 74.117 323.587 73.7757 324.127 73.0931C324.668 72.3963 324.938 71.4436 324.938 70.2349ZM331.484 67.0994C332.152 65.6205 333.297 64.8811 334.918 64.8811C336.127 64.8811 337.065 65.2792 337.734 66.0755C338.416 66.8719 338.757 67.9597 338.757 69.339V75.3328H337.094V69.339C337.094 68.3579 336.859 67.6184 336.39 67.1207C335.935 66.623 335.281 66.3742 334.427 66.3742C333.574 66.3742 332.885 66.7226 332.358 67.4193C331.832 68.1161 331.555 69.0831 331.527 70.3202V75.3328H329.841V65.137H331.292L331.484 67.0994ZM348.693 73.7757H356.479V75.3328H347.008V73.3491C347.008 71.7707 347.606 70.6117 348.8 69.8723C349.184 69.6305 349.611 69.4172 350.08 69.2324L352.725 68.1659C354.09 67.6255 354.772 66.7368 354.772 65.4996C354.772 64.8171 354.538 64.2625 354.069 63.8359C353.599 63.3951 352.938 63.1747 352.085 63.1747C351.246 63.1747 350.556 63.3524 350.016 63.7079C349.49 64.0634 349.184 64.5967 349.099 65.3077H347.243C347.314 64.1416 347.783 63.2458 348.651 62.6201C349.518 61.9944 350.627 61.6816 351.978 61.6816C353.343 61.6816 354.452 62.0513 355.306 62.7907C356.159 63.5302 356.585 64.4474 356.585 65.5423C356.585 66.623 356.301 67.4833 355.732 68.1232C355.178 68.7631 354.41 69.275 353.429 69.659L350.72 70.7468C350.037 71.0312 349.525 71.3583 349.184 71.728C348.857 72.0835 348.693 72.5528 348.693 73.1358V73.7757ZM367.663 61.9162L372.185 71.0028L376.665 61.9162H379.032V75.3328H377.347V64.3052L372.74 73.6477H371.609L366.938 64.1558V75.3328H365.253V61.9162H367.663ZM389.647 68.7205C389.647 67.7962 389.455 67.1349 389.071 66.7368C388.687 66.3386 388.126 66.1395 387.386 66.1395C386.661 66.1395 386.071 66.2888 385.616 66.5875C385.175 66.8719 384.955 67.3269 384.955 67.9526H383.099C383.099 66.3884 383.938 65.4214 385.616 65.0517C386.128 64.9379 386.682 64.8811 387.28 64.8811C388.545 64.8811 389.534 65.201 390.245 65.8409C390.956 66.4808 391.311 67.4549 391.311 68.7631V75.3328H389.861L389.69 73.6264C389.064 74.9204 387.934 75.5674 386.298 75.5674C385.204 75.5674 384.322 75.2617 383.654 74.6502C382.999 74.0387 382.672 73.278 382.672 72.3679C382.672 71.4578 383.035 70.7468 383.76 70.2349C384.5 69.723 385.417 69.467 386.512 69.467C387.607 69.467 388.652 69.6519 389.647 70.0216V68.7205ZM389.647 71.0881C388.638 70.8037 387.756 70.6615 387.002 70.6615C386.249 70.6615 385.637 70.7966 385.168 71.0668C384.699 71.3369 384.464 71.7635 384.464 72.3466C384.464 73.6264 385.189 74.2663 386.64 74.2663C387.465 74.2663 388.168 73.9748 388.751 73.3917C389.349 72.7945 389.647 72.0266 389.647 71.0881ZM399.429 66.5661C397.822 66.5661 396.99 67.8317 396.933 70.3629V75.3328H395.248V65.1157H396.933V67.0781C397.445 65.6561 398.348 64.9451 399.642 64.9451C400.054 64.9451 400.445 65.009 400.815 65.137L400.73 66.7794C400.303 66.6372 399.869 66.5661 399.429 66.5661ZM406.443 69.9363L405.078 71.0454V75.3328H403.393V60.807H405.078V69.2537L410.005 65.137H412.352L407.659 68.9551L412.586 75.3328H410.517L406.443 69.9363Z" fill="black"/>
<defs>
<filter id="filter0_d" x="0" y="0" width="220" height="185.83" filterUnits="userSpaceOnUse" color-interpolation-filters="sRGB">
<feFlood flood-opacity="0" result="BackgroundImageFix"/>
<feColorMatrix in="SourceAlpha" type="matrix" values="0 0 0 0 0 0 0 0 0 0 0 0 0 0 0 0 0 0 127 0" result="hardAlpha"/>
<feOffset dy="4"/>
<feGaussianBlur stdDeviation="2"/>
<feComposite in2="hardAlpha" operator="out"/>
<feColorMatrix type="matrix" values="0 0 0 0 0 0 0 0 0 0 0 0 0 0 0 0 0 0 0.25 0"/>
<feBlend mode="normal" in2="BackgroundImageFix" result="effect1_dropShadow"/>
<feBlend mode="normal" in="SourceGraphic" in2="effect1_dropShadow" result="shape"/>
</filter>
<filter id="filter1_d" x="212" y="0" width="220" height="185.83" filterUnits="userSpaceOnUse" color-interpolation-filters="sRGB">
<feFlood flood-opacity="0" result="BackgroundImageFix"/>
<feColorMatrix in="SourceAlpha" type="matrix" values="0 0 0 0 0 0 0 0 0 0 0 0 0 0 0 0 0 0 127 0" result="hardAlpha"/>
<feOffset dy="4"/>
<feGaussianBlur stdDeviation="2"/>
<feComposite in2="hardAlpha" operator="out"/>
<feColorMatrix type="matrix" values="0 0 0 0 0 0 0 0 0 0 0 0 0 0 0 0 0 0 0.25 0"/>
<feBlend mode="normal" in2="BackgroundImageFix" result="effect1_dropShadow"/>
<feBlend mode="normal" in="SourceGraphic" in2="effect1_dropShadow" result="shape"/>
</filter>
</defs>
</svg>
