<svg width="432" height="214" viewBox="0 0 432 214" fill="none" xmlns="http://www.w3.org/2000/svg">
<g filter="url(#filter0_d_103:14)">
<rect x="4" y="0.301758" width="212" height="205.438" rx="4" fill="white"/>
<rect x="4.5" y="0.801758" width="211" height="204.438" rx="3.5" stroke="black" stroke-opacity="0.21"/>
</g>
<path d="M76.8024 131.455C81.9217 131.455 84.4814 127.245 84.4814 118.825C84.4814 117.916 84.414 116.922 84.2793 115.844C83.8415 118.471 82.7469 120.458 80.9955 121.806C79.4462 122.984 77.476 123.574 75.0847 123.574C72.0198 123.574 69.5106 122.614 67.5572 120.694C65.6374 118.741 64.6776 116.248 64.6776 113.217C64.6776 110.119 65.7722 107.61 67.9614 105.69C70.1506 103.77 72.9965 102.81 76.4992 102.81C80.4735 102.81 83.791 104.326 86.4517 107.357C89.1461 110.456 90.4933 114.447 90.4933 119.33C90.4933 127.784 87.9673 133.257 82.9153 135.749C81.2313 136.558 79.3957 136.962 77.4086 136.962C75.4552 136.962 73.7375 136.709 72.2556 136.204C70.8073 135.699 69.5443 134.991 68.4666 134.082C66.1763 132.162 65.0312 129.653 65.0312 126.555H71.2452C71.3125 128.07 71.8514 129.266 72.8618 130.141C73.9059 131.017 75.2194 131.455 76.8024 131.455ZM76.5498 108.266C74.9331 108.266 73.5691 108.738 72.4576 109.681C71.3799 110.59 70.841 111.87 70.841 113.52C70.841 115.137 71.3799 116.4 72.4576 117.309C73.5691 118.219 74.9331 118.673 76.5498 118.673C78.1327 118.673 79.4799 118.202 80.5914 117.259C81.7028 116.248 82.2585 114.985 82.2585 113.47C82.2585 111.921 81.7028 110.658 80.5914 109.681C79.5136 108.738 78.1664 108.266 76.5498 108.266ZM107.637 131.455C112.757 131.455 115.316 127.245 115.316 118.825C115.316 117.916 115.249 116.922 115.114 115.844C114.676 118.471 113.582 120.458 111.83 121.806C110.281 122.984 108.311 123.574 105.92 123.574C102.855 123.574 100.346 122.614 98.3922 120.694C96.4724 118.741 95.5125 116.248 95.5125 113.217C95.5125 110.119 96.6071 107.61 98.7963 105.69C100.986 103.77 103.831 102.81 107.334 102.81C111.308 102.81 114.626 104.326 117.287 107.357C119.981 110.456 121.328 114.447 121.328 119.33C121.328 127.784 118.802 133.257 113.75 135.749C112.066 136.558 110.231 136.962 108.244 136.962C106.29 136.962 104.572 136.709 103.091 136.204C101.642 135.699 100.379 134.991 99.3015 134.082C97.0113 132.162 95.8662 129.653 95.8662 126.555H102.08C102.147 128.07 102.686 129.266 103.697 130.141C104.741 131.017 106.054 131.455 107.637 131.455ZM107.385 108.266C105.768 108.266 104.404 108.738 103.293 109.681C102.215 110.59 101.676 111.87 101.676 113.52C101.676 115.137 102.215 116.4 103.293 117.309C104.404 118.219 105.768 118.673 107.385 118.673C108.968 118.673 110.315 118.202 111.426 117.259C112.538 116.248 113.093 114.985 113.093 113.47C113.093 111.921 112.538 110.658 111.426 109.681C110.349 108.738 109.001 108.266 107.385 108.266ZM129.025 136.709C127.813 136.709 126.819 136.339 126.044 135.598C125.27 134.857 124.882 133.914 124.882 132.769C124.882 131.623 125.27 130.664 126.044 129.889C126.819 129.114 127.813 128.727 129.025 128.727C130.238 128.727 131.248 129.114 132.056 129.889C132.865 130.664 133.269 131.623 133.269 132.769C133.269 133.914 132.865 134.857 132.056 135.598C131.248 136.339 130.238 136.709 129.025 136.709ZM145.588 116.299C147.406 115.996 149.141 115.844 150.791 115.844C154.193 115.844 156.904 116.669 158.925 118.32C160.946 119.936 161.956 122.277 161.956 125.342C161.956 128.676 160.828 131.421 158.571 133.577C156.18 135.833 153.166 136.962 149.528 136.962C145.925 136.962 143.045 136.052 140.889 134.234C138.633 132.348 137.471 129.754 137.403 126.454H143.516C143.516 128.171 144.089 129.434 145.234 130.243C146.379 131.051 147.844 131.455 149.629 131.455C151.414 131.455 152.879 130.882 154.025 129.737C155.203 128.559 155.793 127.093 155.793 125.342C155.793 122.008 153.536 120.341 149.023 120.341H139.02L140.536 103.467H160.188V108.923H146.295L145.588 116.299Z" fill="#061798"/>
<path d="M92.1619 54.538H94.2095L98.7102 67.9546H96.9611L95.8093 64.5418H90.4768L89.325 67.9546H87.5546L92.1619 54.538ZM90.9247 63.2193H95.3827L93.1644 56.607L90.9247 63.2193ZM98.5429 54.538H108.973V55.9885H104.601V67.9546H102.916V55.9885H98.5429V54.538ZM113.409 54.538H115.456L119.957 67.9546H118.208L117.056 64.5418H111.723L110.572 67.9546H108.801L113.409 54.538ZM112.171 63.2193H116.629L114.411 56.607L112.171 63.2193ZM132.012 58.3774C132.012 59.4866 131.714 60.3824 131.117 61.065C130.534 61.7476 129.666 62.1884 128.514 62.3875L132.354 67.9546H130.178L126.701 62.4728H124.355V67.9546H122.67V54.538H127.341C128.849 54.538 130 54.9006 130.797 55.6258C131.607 56.3511 132.012 57.2683 132.012 58.3774ZM127.213 61.2996C128.223 61.2996 128.984 61.0579 129.496 60.5744C130.022 60.0767 130.285 59.4297 130.285 58.6334C130.285 57.8228 130.029 57.1829 129.517 56.7137C129.019 56.2302 128.294 55.9885 127.341 55.9885H124.355V61.2996H127.213Z" fill="#CF622A"/>
<g filter="url(#filter1_d_103:14)">
<rect x="216" y="0.301758" width="212" height="205.438" rx="4" fill="white"/>
<rect x="216.5" y="0.801758" width="211" height="204.438" rx="3.5" stroke="black" stroke-opacity="0.21"/>
</g>
<path d="M308.802 131.455C313.922 131.455 316.481 127.245 316.481 118.825C316.481 117.916 316.414 116.922 316.279 115.844C315.841 118.471 314.747 120.458 312.996 121.806C311.446 122.984 309.476 123.574 307.085 123.574C304.02 123.574 301.511 122.614 299.557 120.694C297.637 118.741 296.678 116.248 296.678 113.217C296.678 110.119 297.772 107.61 299.961 105.69C302.151 103.77 304.997 102.81 308.499 102.81C312.473 102.81 315.791 104.326 318.452 107.357C321.146 110.456 322.493 114.447 322.493 119.33C322.493 127.784 319.967 133.257 314.915 135.749C313.231 136.558 311.396 136.962 309.409 136.962C307.455 136.962 305.737 136.709 304.256 136.204C302.807 135.699 301.544 134.991 300.467 134.082C298.176 132.162 297.031 129.653 297.031 126.555H303.245C303.313 128.07 303.851 129.266 304.862 130.141C305.906 131.017 307.219 131.455 308.802 131.455ZM308.55 108.266C306.933 108.266 305.569 108.738 304.458 109.681C303.38 110.59 302.841 111.87 302.841 113.52C302.841 115.137 303.38 116.4 304.458 117.309C305.569 118.219 306.933 118.673 308.55 118.673C310.133 118.673 311.48 118.202 312.591 117.259C313.703 116.248 314.259 114.985 314.259 113.47C314.259 111.921 313.703 110.658 312.591 109.681C311.514 108.738 310.166 108.266 308.55 108.266ZM346.306 112.459C346.138 111.146 345.666 110.119 344.891 109.378C344.117 108.603 343.039 108.216 341.658 108.216C340.311 108.216 339.115 108.519 338.071 109.125C337.061 109.698 336.185 110.54 335.444 111.651C333.962 113.941 333.221 117.04 333.221 120.947C333.221 122.395 333.272 123.49 333.373 124.231C333.743 121.334 334.838 119.212 336.657 117.865C338.24 116.72 340.21 116.147 342.567 116.147C345.599 116.147 348.108 117.124 350.095 119.078C352.048 120.964 353.025 123.456 353.025 126.555C353.025 129.653 351.931 132.162 349.741 134.082C347.552 136.002 344.689 136.962 341.153 136.962C337.044 136.962 333.693 135.412 331.099 132.314C328.506 129.215 327.209 125.258 327.209 120.442C327.209 114.851 328.506 110.489 331.099 107.357C333.625 104.326 337.061 102.81 341.406 102.81C344.706 102.81 347.367 103.686 349.388 105.437C351.442 107.222 352.537 109.563 352.671 112.459H346.306ZM341.153 121.048C339.536 121.048 338.172 121.536 337.061 122.513C335.983 123.456 335.444 124.719 335.444 126.302C335.444 127.885 335.983 129.148 337.061 130.091C338.172 131 339.519 131.455 341.102 131.455C342.719 131.455 344.083 131 345.195 130.091C346.306 129.148 346.862 127.885 346.862 126.302C346.862 124.719 346.289 123.422 345.144 122.412C344.1 121.503 342.77 121.048 341.153 121.048Z" fill="#061798"/>
<path d="M267.887 40.7719L272.409 49.8585L276.889 40.7719H279.256V54.1885H277.571V43.1609L272.964 52.5034H271.833L267.162 43.0116V54.1885H265.477V40.7719H267.887ZM289.871 47.5762C289.871 46.6519 289.679 45.9906 289.295 45.5925C288.911 45.1943 288.35 44.9952 287.61 44.9952C286.885 44.9952 286.295 45.1446 285.84 45.4432C285.399 45.7276 285.179 46.1826 285.179 46.8083H283.323C283.323 45.2441 284.162 44.2771 285.84 43.9074C286.352 43.7937 286.906 43.7368 287.504 43.7368C288.769 43.7368 289.757 44.0567 290.468 44.6966C291.179 45.3365 291.535 46.3106 291.535 47.6188V54.1885H290.085L289.914 52.4821C289.288 53.7761 288.158 54.4231 286.522 54.4231C285.427 54.4231 284.546 54.1174 283.877 53.5059C283.223 52.8945 282.896 52.1337 282.896 51.2236C282.896 50.3135 283.259 49.6025 283.984 49.0906C284.724 48.5787 285.641 48.3227 286.736 48.3227C287.831 48.3227 288.876 48.5076 289.871 48.8773V47.5762ZM289.871 49.9438C288.862 49.6594 287.98 49.5172 287.226 49.5172C286.473 49.5172 285.861 49.6523 285.392 49.9225C284.923 50.1927 284.688 50.6193 284.688 51.2023C284.688 52.4821 285.413 53.122 286.864 53.122C287.688 53.122 288.392 52.8305 288.975 52.2474C289.573 51.6502 289.871 50.8823 289.871 49.9438ZM300.826 53.8899C299.603 54.4587 298.486 54.5795 297.477 54.2525C296.752 54.0249 296.24 53.5486 295.941 52.8234C295.785 52.4679 295.706 52.0413 295.706 51.5436V45.2725H294.064V43.9927H295.706V41.1558H297.37V43.9927H300.57V45.2725H297.37V51.5222C297.37 52.5603 297.854 53.0793 298.821 53.0793C299.347 53.0793 299.937 52.9513 300.591 52.6954L300.826 53.8899ZM305.198 45.8698C305.88 44.4478 307.011 43.7368 308.589 43.7368C309.798 43.7368 310.736 44.1349 311.405 44.9313C312.087 45.7276 312.429 46.8154 312.429 48.1947V54.1885H310.765V48.1947C310.765 47.2136 310.53 46.4741 310.061 45.9764C309.606 45.4787 308.945 45.2299 308.077 45.2299C307.21 45.2299 306.513 45.5996 305.987 46.339C305.461 47.0643 305.198 48.0739 305.198 49.3679V54.1885H303.513V39.6627H305.198V45.8698ZM319.905 53.058C321.313 53.058 322.116 52.4394 322.315 51.2023H324.043C323.887 52.2261 323.432 53.0224 322.678 53.5912C321.939 54.1458 321.014 54.4231 319.905 54.4231C318.54 54.4231 317.431 53.9396 316.578 52.9727C315.724 51.9915 315.298 50.6904 315.298 49.0693C315.298 47.4482 315.724 46.1542 316.578 45.1872C317.445 44.2203 318.59 43.7368 320.012 43.7368C321.448 43.7368 322.515 44.2914 323.211 45.4005C323.922 46.5097 324.171 47.8606 323.958 49.4532H316.983C316.983 50.5055 317.239 51.3729 317.751 52.0555C318.263 52.7238 318.981 53.058 319.905 53.058ZM321.142 45.3365C320.815 45.1659 320.417 45.0806 319.948 45.0806C319.08 45.0806 318.391 45.3792 317.879 45.9764C317.381 46.5594 317.09 47.2918 317.004 48.1734H322.443C322.443 46.7514 322.01 45.8058 321.142 45.3365ZM328.984 45.9551C329.653 44.4762 330.797 43.7368 332.418 43.7368C333.3 43.7368 334.039 43.9572 334.637 44.398C335.234 44.8246 335.668 45.4218 335.938 46.1897C336.578 44.5544 337.765 43.7368 339.5 43.7368C340.723 43.7368 341.668 44.1349 342.337 44.9313C343.005 45.7276 343.339 46.8154 343.339 48.1947V54.1885H341.676V48.1947C341.676 47.2136 341.441 46.4741 340.972 45.9764C340.517 45.4787 339.855 45.2299 338.988 45.2299C338.121 45.2299 337.445 45.5854 336.962 46.2964C336.492 47.0074 336.258 47.9886 336.258 49.2399V54.1885H334.594V48.1947C334.594 47.2136 334.359 46.4741 333.89 45.9764C333.435 45.4787 332.781 45.2299 331.928 45.2299C331.075 45.2299 330.385 45.5783 329.859 46.275C329.333 46.9718 329.055 47.9388 329.027 49.1759V54.1885H327.342V43.9927H328.792L328.984 45.9551ZM353.611 47.5762C353.611 46.6519 353.419 45.9906 353.035 45.5925C352.651 45.1943 352.09 44.9952 351.35 44.9952C350.625 44.9952 350.035 45.1446 349.58 45.4432C349.139 45.7276 348.919 46.1826 348.919 46.8083H347.063C347.063 45.2441 347.902 44.2771 349.58 43.9074C350.092 43.7937 350.646 43.7368 351.244 43.7368C352.509 43.7368 353.497 44.0567 354.208 44.6966C354.919 45.3365 355.275 46.3106 355.275 47.6188V54.1885H353.825L353.654 52.4821C353.028 53.7761 351.898 54.4231 350.262 54.4231C349.167 54.4231 348.286 54.1174 347.618 53.5059C346.963 52.8945 346.636 52.1337 346.636 51.2236C346.636 50.3135 346.999 49.6025 347.724 49.0906C348.464 48.5787 349.381 48.3227 350.476 48.3227C351.571 48.3227 352.616 48.5076 353.611 48.8773V47.5762ZM353.611 49.9438C352.602 49.6594 351.72 49.5172 350.966 49.5172C350.213 49.5172 349.601 49.6523 349.132 49.9225C348.663 50.1927 348.428 50.6193 348.428 51.2023C348.428 52.4821 349.153 53.122 350.604 53.122C351.428 53.122 352.132 52.8305 352.715 52.2474C353.313 51.6502 353.611 50.8823 353.611 49.9438ZM364.566 53.8899C363.343 54.4587 362.226 54.5795 361.217 54.2525C360.492 54.0249 359.98 53.5486 359.681 52.8234C359.525 52.4679 359.446 52.0413 359.446 51.5436V45.2725H357.804V43.9927H359.446V41.1558H361.11V43.9927H364.31V45.2725H361.11V51.5222C361.11 52.5603 361.594 53.0793 362.561 53.0793C363.087 53.0793 363.677 52.9513 364.331 52.6954L364.566 53.8899ZM367.359 43.9714H369.044V54.1885H367.359V43.9714ZM368.191 41.5824C367.85 41.5824 367.58 41.49 367.381 41.3052C367.196 41.1061 367.103 40.8501 367.103 40.5373C367.103 40.2102 367.196 39.9543 367.381 39.7694C367.58 39.5703 367.85 39.4708 368.191 39.4708C368.533 39.4708 368.803 39.5703 369.002 39.7694C369.215 39.9543 369.322 40.2102 369.322 40.5373C369.322 40.8501 369.215 41.1061 369.002 41.3052C368.803 41.49 368.533 41.5824 368.191 41.5824ZM377.018 43.7368C378.227 43.7368 379.187 44.0496 379.898 44.6753C380.609 45.2868 381.071 46.0546 381.284 46.9789L379.578 47.1282C379.393 46.531 379.094 46.0689 378.682 45.7418C378.27 45.4005 377.815 45.2299 377.317 45.2299C376.407 45.2299 375.667 45.5712 375.099 46.2537C374.544 46.9363 374.267 47.8677 374.267 49.0479C374.267 50.214 374.537 51.1525 375.077 51.8635C375.632 52.5745 376.314 52.93 377.125 52.93C377.95 52.93 378.561 52.7451 378.959 52.3754C379.372 51.9915 379.578 51.4511 379.578 50.7543H381.306C381.306 51.8493 380.922 52.738 380.154 53.4206C379.4 54.0889 378.412 54.4231 377.189 54.4231C375.895 54.4231 374.793 53.9325 373.883 52.9513C372.987 51.9702 372.539 50.669 372.539 49.0479C372.539 47.4126 372.987 46.1186 373.883 45.1659C374.779 44.2131 375.824 43.7368 377.018 43.7368ZM384.071 46.4883C384.071 45.6494 384.426 44.981 385.137 44.4833C385.863 43.9856 386.837 43.7368 388.06 43.7368C389.283 43.7368 390.235 43.9927 390.918 44.5047C391.615 45.0166 391.977 45.6636 392.006 46.4457H390.363C390.235 45.5214 389.453 45.0592 388.017 45.0592C387.32 45.0592 386.78 45.2157 386.396 45.5285C386.026 45.8413 385.841 46.1826 385.841 46.5523C385.841 46.9078 385.984 47.2136 386.268 47.4695C386.552 47.7113 387.007 47.9246 387.633 48.1094L389.681 48.792C390.548 49.0622 391.209 49.4106 391.664 49.8372C392.134 50.2495 392.368 50.8254 392.368 51.5649C392.368 52.2901 391.992 52.9513 391.238 53.5486C390.484 54.1316 389.432 54.4231 388.081 54.4231C386.73 54.4231 385.678 54.1245 384.924 53.5272C384.171 52.9158 383.772 52.1337 383.73 51.1809H385.351C385.379 51.8208 385.635 52.3043 386.119 52.6314C386.616 52.9442 387.235 53.1006 387.974 53.1006C388.714 53.1006 389.325 52.9442 389.809 52.6314C390.292 52.3185 390.534 51.9488 390.534 51.5222C390.534 51.0814 390.392 50.7472 390.107 50.5197C389.823 50.2922 389.361 50.0931 388.721 49.9225L386.737 49.2612C384.96 48.7351 384.071 47.8108 384.071 46.4883ZM245.855 66.7719H254.109V68.2223H247.54V72.723H253.725V74.1521H247.54V78.7167H254.109V80.1885H245.855V66.7719ZM266.044 80.1885H263.996L261.074 76.3277L258.301 80.1885H256.253L260.114 75.0906L256.253 69.9714H258.301L261.223 73.8108L264.018 69.9714H266.065L262.162 75.0906L266.044 80.1885ZM274.101 79.8899C272.878 80.4587 271.761 80.5795 270.752 80.2525C270.027 80.0249 269.515 79.5486 269.216 78.8234C269.06 78.4679 268.981 78.0413 268.981 77.5436V71.2725H267.339V69.9927H268.981V67.1558H270.645V69.9927H273.845V71.2725H270.645V77.5222C270.645 78.5603 271.129 79.0793 272.096 79.0793C272.622 79.0793 273.212 78.9513 273.866 78.6954L274.101 79.8899ZM280.307 79.058C281.715 79.058 282.518 78.4394 282.717 77.2023H284.445C284.289 78.2261 283.834 79.0224 283.08 79.5912C282.341 80.1458 281.416 80.4231 280.307 80.4231C278.942 80.4231 277.833 79.9396 276.98 78.9727C276.127 77.9915 275.7 76.6904 275.7 75.0693C275.7 73.4482 276.127 72.1542 276.98 71.1872C277.847 70.2203 278.992 69.7368 280.414 69.7368C281.85 69.7368 282.917 70.2914 283.613 71.4005C284.324 72.5097 284.573 73.8606 284.36 75.4532H277.385C277.385 76.5055 277.641 77.3729 278.153 78.0555C278.665 78.7238 279.383 79.058 280.307 79.058ZM281.544 71.3365C281.217 71.1659 280.819 71.0806 280.35 71.0806C279.482 71.0806 278.793 71.3792 278.281 71.9764C277.783 72.5594 277.492 73.2918 277.406 74.1734H282.845C282.845 72.7514 282.412 71.8058 281.544 71.3365ZM289.386 71.9551C290.055 70.4762 291.199 69.7368 292.82 69.7368C294.029 69.7368 294.968 70.1349 295.636 70.9313C296.319 71.7276 296.66 72.8154 296.66 74.1947V80.1885H294.996V74.1947C294.996 73.2136 294.761 72.4741 294.292 71.9764C293.837 71.4787 293.183 71.2299 292.33 71.2299C291.477 71.2299 290.787 71.5783 290.261 72.275C289.735 72.9718 289.457 73.9388 289.429 75.1759V80.1885H287.744V69.9927H289.194L289.386 71.9551ZM300.084 72.4883C300.084 71.6494 300.44 70.981 301.151 70.4833C301.876 69.9856 302.85 69.7368 304.073 69.7368C305.296 69.7368 306.248 69.9927 306.931 70.5047C307.628 71.0166 307.99 71.6636 308.019 72.4457H306.376C306.248 71.5214 305.466 71.0592 304.03 71.0592C303.333 71.0592 302.793 71.2157 302.409 71.5285C302.039 71.8413 301.854 72.1826 301.854 72.5523C301.854 72.9078 301.997 73.2136 302.281 73.4695C302.565 73.7113 303.021 73.9246 303.646 74.1094L305.694 74.792C306.561 75.0622 307.223 75.4106 307.678 75.8372C308.147 76.2495 308.381 76.8254 308.381 77.5649C308.381 78.2901 308.005 78.9513 307.251 79.5486C306.497 80.1316 305.445 80.4231 304.094 80.4231C302.743 80.4231 301.691 80.1245 300.937 79.5272C300.184 78.9158 299.785 78.1337 299.743 77.1809H301.364C301.392 77.8208 301.648 78.3043 302.132 78.6314C302.629 78.9442 303.248 79.1006 303.987 79.1006C304.727 79.1006 305.338 78.9442 305.822 78.6314C306.305 78.3185 306.547 77.9488 306.547 77.5222C306.547 77.0814 306.405 76.7472 306.12 76.5197C305.836 76.2922 305.374 76.0931 304.734 75.9225L302.75 75.2612C300.973 74.7351 300.084 73.8108 300.084 72.4883ZM311.951 69.9714H313.636V80.1885H311.951V69.9714ZM312.783 67.5824C312.442 67.5824 312.172 67.49 311.973 67.3052C311.788 67.1061 311.695 66.8501 311.695 66.5373C311.695 66.2102 311.788 65.9543 311.973 65.7694C312.172 65.5703 312.442 65.4708 312.783 65.4708C313.125 65.4708 313.395 65.5703 313.594 65.7694C313.807 65.9543 313.914 66.2102 313.914 66.5373C313.914 66.8501 313.807 67.1061 313.594 67.3052C313.395 67.49 313.125 67.5824 312.783 67.5824ZM321.888 69.7368C323.31 69.7368 324.454 70.1989 325.322 71.1232C326.203 72.0475 326.644 73.37 326.644 75.0906C326.644 76.797 326.203 78.1124 325.322 79.0367C324.454 79.961 323.31 80.4231 321.888 80.4231C320.466 80.4231 319.314 79.961 318.432 79.0367C317.565 78.1124 317.131 76.797 317.131 75.0906C317.131 73.37 317.565 72.0475 318.432 71.1232C319.314 70.1989 320.466 69.7368 321.888 69.7368ZM324.938 75.0906C324.938 73.8677 324.682 72.9149 324.17 72.2324C323.658 71.5356 322.904 71.1872 321.909 71.1872C320.928 71.1872 320.174 71.5356 319.648 72.2324C319.122 72.9149 318.859 73.8677 318.859 75.0906C318.859 76.2993 319.108 77.252 319.605 77.9488C320.103 78.6314 320.842 78.9727 321.824 78.9727C322.819 78.9727 323.587 78.6314 324.127 77.9488C324.668 77.252 324.938 76.2993 324.938 75.0906ZM331.484 71.9551C332.152 70.4762 333.297 69.7368 334.918 69.7368C336.127 69.7368 337.065 70.1349 337.734 70.9313C338.416 71.7276 338.757 72.8154 338.757 74.1947V80.1885H337.094V74.1947C337.094 73.2136 336.859 72.4741 336.39 71.9764C335.935 71.4787 335.281 71.2299 334.427 71.2299C333.574 71.2299 332.885 71.5783 332.358 72.275C331.832 72.9718 331.555 73.9388 331.527 75.1759V80.1885H329.841V69.9927H331.292L331.484 71.9551ZM348.693 78.6314H356.479V80.1885H347.008V78.2048C347.008 76.6264 347.606 75.4674 348.8 74.728C349.184 74.4863 349.611 74.273 350.08 74.0881L352.725 73.0216C354.09 72.4812 354.772 71.5925 354.772 70.3553C354.772 69.6728 354.538 69.1182 354.069 68.6916C353.599 68.2508 352.938 68.0304 352.085 68.0304C351.246 68.0304 350.556 68.2081 350.016 68.5636C349.49 68.9191 349.184 69.4524 349.099 70.1634H347.243C347.314 68.9973 347.783 68.1015 348.651 67.4758C349.518 66.8501 350.627 66.5373 351.978 66.5373C353.343 66.5373 354.452 66.907 355.306 67.6464C356.159 68.3859 356.585 69.3031 356.585 70.398C356.585 71.4787 356.301 72.339 355.732 72.9789C355.178 73.6188 354.41 74.1308 353.429 74.5147L350.72 75.6025C350.037 75.8869 349.525 76.214 349.184 76.5837C348.857 76.9392 348.693 77.4085 348.693 77.9915V78.6314ZM367.663 66.7719L372.185 75.8585L376.665 66.7719H379.032V80.1885H377.347V69.1609L372.74 78.5034H371.609L366.938 69.0116V80.1885H365.253V66.7719H367.663ZM389.647 73.5762C389.647 72.6519 389.455 71.9906 389.071 71.5925C388.687 71.1943 388.126 70.9952 387.386 70.9952C386.661 70.9952 386.071 71.1446 385.616 71.4432C385.175 71.7276 384.955 72.1826 384.955 72.8083H383.099C383.099 71.2441 383.938 70.2771 385.616 69.9074C386.128 69.7937 386.682 69.7368 387.28 69.7368C388.545 69.7368 389.534 70.0567 390.245 70.6966C390.956 71.3365 391.311 72.3106 391.311 73.6188V80.1885H389.861L389.69 78.4821C389.064 79.7761 387.934 80.4231 386.298 80.4231C385.204 80.4231 384.322 80.1174 383.654 79.5059C382.999 78.8945 382.672 78.1337 382.672 77.2236C382.672 76.3135 383.035 75.6025 383.76 75.0906C384.5 74.5787 385.417 74.3227 386.512 74.3227C387.607 74.3227 388.652 74.5076 389.647 74.8773V73.5762ZM389.647 75.9438C388.638 75.6594 387.756 75.5172 387.002 75.5172C386.249 75.5172 385.637 75.6523 385.168 75.9225C384.699 76.1927 384.464 76.6193 384.464 77.2023C384.464 78.4821 385.189 79.122 386.64 79.122C387.465 79.122 388.168 78.8305 388.751 78.2474C389.349 77.6502 389.647 76.8823 389.647 75.9438ZM399.429 71.4218C397.822 71.4218 396.99 72.6874 396.933 75.2186V80.1885H395.248V69.9714H396.933V71.9338C397.445 70.5118 398.348 69.8008 399.642 69.8008C400.054 69.8008 400.445 69.8648 400.815 69.9927L400.73 71.6351C400.303 71.4929 399.869 71.4218 399.429 71.4218ZM406.443 74.792L405.078 75.9011V80.1885H403.393V65.6627H405.078V74.1094L410.005 69.9927H412.352L407.659 73.8108L412.586 80.1885H410.517L406.443 74.792Z" fill="#CF622A"/>
<defs>
<filter id="filter0_d_103:14" x="0" y="0.301758" width="220" height="213.438" filterUnits="userSpaceOnUse" color-interpolation-filters="sRGB">
<feFlood flood-opacity="0" result="BackgroundImageFix"/>
<feColorMatrix in="SourceAlpha" type="matrix" values="0 0 0 0 0 0 0 0 0 0 0 0 0 0 0 0 0 0 127 0" result="hardAlpha"/>
<feOffset dy="4"/>
<feGaussianBlur stdDeviation="2"/>
<feComposite in2="hardAlpha" operator="out"/>
<feColorMatrix type="matrix" values="0 0 0 0 0 0 0 0 0 0 0 0 0 0 0 0 0 0 0.25 0"/>
<feBlend mode="normal" in2="BackgroundImageFix" result="effect1_dropShadow_103:14"/>
<feBlend mode="normal" in="SourceGraphic" in2="effect1_dropShadow_103:14" result="shape"/>
</filter>
<filter id="filter1_d_103:14" x="212" y="0.301758" width="220" height="213.438" filterUnits="userSpaceOnUse" color-interpolation-filters="sRGB">
<feFlood flood-opacity="0" result="BackgroundImageFix"/>
<feColorMatrix in="SourceAlpha" type="matrix" values="0 0 0 0 0 0 0 0 0 0 0 0 0 0 0 0 0 0 127 0" result="hardAlpha"/>
<feOffset dy="4"/>
<feGaussianBlur stdDeviation="2"/>
<feComposite in2="hardAlpha" operator="out"/>
<feColorMatrix type="matrix" values="0 0 0 0 0 0 0 0 0 0 0 0 0 0 0 0 0 0 0.25 0"/>
<feBlend mode="normal" in2="BackgroundImageFix" result="effect1_dropShadow_103:14"/>
<feBlend mode="normal" in="SourceGraphic" in2="effect1_dropShadow_103:14" result="shape"/>
</filter>
</defs>
</svg>
