<svg width="432" height="223" viewBox="0 0 432 223" fill="none" xmlns="http://www.w3.org/2000/svg">
<g filter="url(#filter0_d)">
<rect x="4" y="0.899902" width="212" height="213.243" rx="4" fill="white"/>
<rect x="4.5" y="1.3999" width="211" height="212.243" rx="3.5" stroke="black" stroke-opacity="0.21"/>
</g>
<path d="M76.8024 135.432C81.9217 135.432 84.4814 131.222 84.4814 122.802C84.4814 121.893 84.414 120.899 84.2793 119.821C83.8415 122.448 82.7469 124.436 80.9955 125.783C79.4462 126.962 77.476 127.551 75.0847 127.551C72.0198 127.551 69.5106 126.591 67.5572 124.671C65.6374 122.718 64.6776 120.226 64.6776 117.194C64.6776 114.096 65.7722 111.587 67.9614 109.667C70.1506 107.747 72.9965 106.787 76.4992 106.787C80.4735 106.787 83.791 108.303 86.4517 111.334C89.1461 114.433 90.4933 118.424 90.4933 123.307C90.4933 131.761 87.9673 137.234 82.9153 139.726C81.2313 140.535 79.3957 140.939 77.4086 140.939C75.4552 140.939 73.7375 140.686 72.2556 140.181C70.8073 139.676 69.5443 138.968 68.4666 138.059C66.1763 136.139 65.0312 133.63 65.0312 130.532H71.2452C71.3125 132.047 71.8514 133.243 72.8618 134.119C73.9059 134.994 75.2194 135.432 76.8024 135.432ZM76.5498 112.243C74.9331 112.243 73.5691 112.715 72.4576 113.658C71.3799 114.567 70.841 115.847 70.841 117.497C70.841 119.114 71.3799 120.377 72.4576 121.286C73.5691 122.196 74.9331 122.65 76.5498 122.65C78.1327 122.65 79.4799 122.179 80.5914 121.236C81.7028 120.226 82.2585 118.963 82.2585 117.447C82.2585 115.898 81.7028 114.635 80.5914 113.658C79.5136 112.715 78.1664 112.243 76.5498 112.243ZM107.637 135.432C112.757 135.432 115.316 131.222 115.316 122.802C115.316 121.893 115.249 120.899 115.114 119.821C114.676 122.448 113.582 124.436 111.83 125.783C110.281 126.962 108.311 127.551 105.92 127.551C102.855 127.551 100.346 126.591 98.3922 124.671C96.4724 122.718 95.5125 120.226 95.5125 117.194C95.5125 114.096 96.6071 111.587 98.7963 109.667C100.986 107.747 103.831 106.787 107.334 106.787C111.308 106.787 114.626 108.303 117.287 111.334C119.981 114.433 121.328 118.424 121.328 123.307C121.328 131.761 118.802 137.234 113.75 139.726C112.066 140.535 110.231 140.939 108.244 140.939C106.29 140.939 104.572 140.686 103.091 140.181C101.642 139.676 100.379 138.968 99.3015 138.059C97.0113 136.139 95.8662 133.63 95.8662 130.532H102.08C102.147 132.047 102.686 133.243 103.697 134.119C104.741 134.994 106.054 135.432 107.637 135.432ZM107.385 112.243C105.768 112.243 104.404 112.715 103.293 113.658C102.215 114.567 101.676 115.847 101.676 117.497C101.676 119.114 102.215 120.377 103.293 121.286C104.404 122.196 105.768 122.65 107.385 122.65C108.968 122.65 110.315 122.179 111.426 121.236C112.538 120.226 113.093 118.963 113.093 117.447C113.093 115.898 112.538 114.635 111.426 113.658C110.349 112.715 109.001 112.243 107.385 112.243ZM129.025 140.686C127.813 140.686 126.819 140.316 126.044 139.575C125.27 138.834 124.882 137.891 124.882 136.746C124.882 135.6 125.27 134.641 126.044 133.866C126.819 133.091 127.813 132.704 129.025 132.704C130.238 132.704 131.248 133.091 132.056 133.866C132.865 134.641 133.269 135.6 133.269 136.746C133.269 137.891 132.865 138.834 132.056 139.575C131.248 140.316 130.238 140.686 129.025 140.686ZM145.588 120.276C147.406 119.973 149.141 119.821 150.791 119.821C154.193 119.821 156.904 120.647 158.925 122.297C160.946 123.913 161.956 126.254 161.956 129.319C161.956 132.653 160.828 135.398 158.571 137.554C156.18 139.81 153.166 140.939 149.528 140.939C145.925 140.939 143.045 140.029 140.889 138.211C138.633 136.325 137.471 133.731 137.403 130.431H143.516C143.516 132.148 144.089 133.411 145.234 134.22C146.379 135.028 147.844 135.432 149.629 135.432C151.414 135.432 152.879 134.859 154.025 133.714C155.203 132.536 155.793 131.07 155.793 129.319C155.793 125.985 153.536 124.318 149.023 124.318H139.02L140.536 107.444H160.188V112.9H146.295L145.588 120.276Z" fill="#061798"/>
<path d="M92.1619 56.9467H94.2095L98.7102 70.3633H96.9611L95.8093 66.9505H90.4768L89.325 70.3633H87.5546L92.1619 56.9467ZM90.9247 65.628H95.3827L93.1644 59.0157L90.9247 65.628ZM98.5429 56.9467H108.973V58.3972H104.601V70.3633H102.916V58.3972H98.5429V56.9467ZM113.409 56.9467H115.456L119.957 70.3633H118.208L117.056 66.9505H111.723L110.572 70.3633H108.801L113.409 56.9467ZM112.171 65.628H116.629L114.411 59.0157L112.171 65.628ZM132.012 60.7861C132.012 61.8953 131.714 62.7911 131.117 63.4737C130.534 64.1563 129.666 64.5971 128.514 64.7962L132.354 70.3633H130.178L126.701 64.8815H124.355V70.3633H122.67V56.9467H127.341C128.849 56.9467 130 57.3093 130.797 58.0345C131.607 58.7598 132.012 59.677 132.012 60.7861ZM127.213 63.7083C128.223 63.7083 128.984 63.4666 129.496 62.9831C130.022 62.4854 130.285 61.8384 130.285 61.0421C130.285 60.2315 130.029 59.5916 129.517 59.1224C129.019 58.6389 128.294 58.3972 127.341 58.3972H124.355V63.7083H127.213Z" fill="black"/>
<g filter="url(#filter1_d)">
<rect x="216" y="0.899902" width="212" height="213.243" rx="4" fill="white"/>
<rect x="216.5" y="1.3999" width="211" height="212.243" rx="3.5" stroke="black" stroke-opacity="0.21"/>
</g>
<path d="M308.802 135.432C313.922 135.432 316.481 131.222 316.481 122.802C316.481 121.893 316.414 120.899 316.279 119.821C315.841 122.448 314.747 124.436 312.996 125.783C311.446 126.962 309.476 127.551 307.085 127.551C304.02 127.551 301.511 126.591 299.557 124.671C297.637 122.718 296.678 120.226 296.678 117.194C296.678 114.096 297.772 111.587 299.961 109.667C302.151 107.747 304.997 106.787 308.499 106.787C312.473 106.787 315.791 108.303 318.452 111.334C321.146 114.433 322.493 118.424 322.493 123.307C322.493 131.761 319.967 137.234 314.915 139.726C313.231 140.535 311.396 140.939 309.409 140.939C307.455 140.939 305.737 140.686 304.256 140.181C302.807 139.676 301.544 138.968 300.467 138.059C298.176 136.139 297.031 133.63 297.031 130.532H303.245C303.313 132.047 303.851 133.243 304.862 134.119C305.906 134.994 307.219 135.432 308.802 135.432ZM308.55 112.243C306.933 112.243 305.569 112.715 304.458 113.658C303.38 114.567 302.841 115.847 302.841 117.497C302.841 119.114 303.38 120.377 304.458 121.286C305.569 122.196 306.933 122.65 308.55 122.65C310.133 122.65 311.48 122.179 312.591 121.236C313.703 120.226 314.259 118.963 314.259 117.447C314.259 115.898 313.703 114.635 312.591 113.658C311.514 112.715 310.166 112.243 308.55 112.243ZM346.306 116.437C346.138 115.123 345.666 114.096 344.891 113.355C344.117 112.58 343.039 112.193 341.658 112.193C340.311 112.193 339.115 112.496 338.071 113.102C337.061 113.675 336.185 114.517 335.444 115.628C333.962 117.918 333.221 121.017 333.221 124.924C333.221 126.372 333.272 127.467 333.373 128.208C333.743 125.311 334.838 123.189 336.657 121.842C338.24 120.697 340.21 120.124 342.567 120.124C345.599 120.124 348.108 121.101 350.095 123.055C352.048 124.941 353.025 127.433 353.025 130.532C353.025 133.63 351.931 136.139 349.741 138.059C347.552 139.979 344.689 140.939 341.153 140.939C337.044 140.939 333.693 139.389 331.099 136.291C328.506 133.192 327.209 129.235 327.209 124.419C327.209 118.828 328.506 114.466 331.099 111.334C333.625 108.303 337.061 106.787 341.406 106.787C344.706 106.787 347.367 107.663 349.388 109.414C351.442 111.199 352.537 113.54 352.671 116.437H346.306ZM341.153 125.025C339.536 125.025 338.172 125.513 337.061 126.49C335.983 127.433 335.444 128.696 335.444 130.279C335.444 131.862 335.983 133.125 337.061 134.068C338.172 134.977 339.519 135.432 341.102 135.432C342.719 135.432 344.083 134.977 345.195 134.068C346.306 133.125 346.862 131.862 346.862 130.279C346.862 128.696 346.289 127.399 345.144 126.389C344.1 125.48 342.77 125.025 341.153 125.025Z" fill="#061798"/>
<path d="M267.887 42.6576L272.409 51.7442L276.889 42.6576H279.256V56.0742H277.571V45.0466L272.964 54.3891H271.833L267.162 44.8973V56.0742H265.477V42.6576H267.887ZM289.871 49.4619C289.871 48.5376 289.679 47.8764 289.295 47.4782C288.911 47.0801 288.35 46.881 287.61 46.881C286.885 46.881 286.295 47.0303 285.84 47.3289C285.399 47.6133 285.179 48.0684 285.179 48.694H283.323C283.323 47.1298 284.162 46.1629 285.84 45.7932C286.352 45.6794 286.906 45.6225 287.504 45.6225C288.769 45.6225 289.757 45.9425 290.468 46.5824C291.179 47.2223 291.535 48.1963 291.535 49.5046V56.0742H290.085L289.914 54.3678C289.288 55.6618 288.158 56.3088 286.522 56.3088C285.427 56.3088 284.546 56.0031 283.877 55.3917C283.223 54.7802 282.896 54.0194 282.896 53.1093C282.896 52.1993 283.259 51.4883 283.984 50.9763C284.724 50.4644 285.641 50.2085 286.736 50.2085C287.831 50.2085 288.876 50.3933 289.871 50.763V49.4619ZM289.871 51.8295C288.862 51.5451 287.98 51.4029 287.226 51.4029C286.473 51.4029 285.861 51.538 285.392 51.8082C284.923 52.0784 284.688 52.505 284.688 53.088C284.688 54.3678 285.413 55.0077 286.864 55.0077C287.688 55.0077 288.392 54.7162 288.975 54.1332C289.573 53.5359 289.871 52.7681 289.871 51.8295ZM300.826 55.7756C299.603 56.3444 298.486 56.4653 297.477 56.1382C296.752 55.9107 296.24 55.4343 295.941 54.7091C295.785 54.3536 295.706 53.927 295.706 53.4293V47.1583H294.064V45.8785H295.706V43.0416H297.37V45.8785H300.57V47.1583H297.37V53.408C297.37 54.446 297.854 54.9651 298.821 54.9651C299.347 54.9651 299.937 54.8371 300.591 54.5811L300.826 55.7756ZM305.198 47.7555C305.88 46.3335 307.011 45.6225 308.589 45.6225C309.798 45.6225 310.736 46.0207 311.405 46.817C312.087 47.6133 312.429 48.7011 312.429 50.0805V56.0742H310.765V50.0805C310.765 49.0993 310.53 48.3599 310.061 47.8622C309.606 47.3645 308.945 47.1156 308.077 47.1156C307.21 47.1156 306.513 47.4853 305.987 48.2248C305.461 48.95 305.198 49.9596 305.198 51.2536V56.0742H303.513V41.5485H305.198V47.7555ZM319.905 54.9437C321.313 54.9437 322.116 54.3252 322.315 53.088H324.043C323.887 54.1119 323.432 54.9082 322.678 55.477C321.939 56.0316 321.014 56.3088 319.905 56.3088C318.54 56.3088 317.431 55.8254 316.578 54.8584C315.724 53.8772 315.298 52.5761 315.298 50.955C315.298 49.3339 315.724 48.0399 316.578 47.073C317.445 46.106 318.59 45.6225 320.012 45.6225C321.448 45.6225 322.515 46.1771 323.211 47.2863C323.922 48.3954 324.171 49.7463 323.958 51.339H316.983C316.983 52.3912 317.239 53.2587 317.751 53.9412C318.263 54.6096 318.981 54.9437 319.905 54.9437ZM321.142 47.2223C320.815 47.0516 320.417 46.9663 319.948 46.9663C319.08 46.9663 318.391 47.2649 317.879 47.8622C317.381 48.4452 317.09 49.1775 317.004 50.0592H322.443C322.443 48.6372 322.01 47.6915 321.142 47.2223ZM328.984 47.8408C329.653 46.362 330.797 45.6225 332.418 45.6225C333.3 45.6225 334.039 45.8429 334.637 46.2837C335.234 46.7103 335.668 47.3076 335.938 48.0755C336.578 46.4402 337.765 45.6225 339.5 45.6225C340.723 45.6225 341.668 46.0207 342.337 46.817C343.005 47.6133 343.339 48.7011 343.339 50.0805V56.0742H341.676V50.0805C341.676 49.0993 341.441 48.3599 340.972 47.8622C340.517 47.3645 339.855 47.1156 338.988 47.1156C338.121 47.1156 337.445 47.4711 336.962 48.1821C336.492 48.8931 336.258 49.8743 336.258 51.1257V56.0742H334.594V50.0805C334.594 49.0993 334.359 48.3599 333.89 47.8622C333.435 47.3645 332.781 47.1156 331.928 47.1156C331.075 47.1156 330.385 47.464 329.859 48.1608C329.333 48.8576 329.055 49.8245 329.027 51.0617V56.0742H327.342V45.8785H328.792L328.984 47.8408ZM353.611 49.4619C353.611 48.5376 353.419 47.8764 353.035 47.4782C352.651 47.0801 352.09 46.881 351.35 46.881C350.625 46.881 350.035 47.0303 349.58 47.3289C349.139 47.6133 348.919 48.0684 348.919 48.694H347.063C347.063 47.1298 347.902 46.1629 349.58 45.7932C350.092 45.6794 350.646 45.6225 351.244 45.6225C352.509 45.6225 353.497 45.9425 354.208 46.5824C354.919 47.2223 355.275 48.1963 355.275 49.5046V56.0742H353.825L353.654 54.3678C353.028 55.6618 351.898 56.3088 350.262 56.3088C349.167 56.3088 348.286 56.0031 347.618 55.3917C346.963 54.7802 346.636 54.0194 346.636 53.1093C346.636 52.1993 346.999 51.4883 347.724 50.9763C348.464 50.4644 349.381 50.2085 350.476 50.2085C351.571 50.2085 352.616 50.3933 353.611 50.763V49.4619ZM353.611 51.8295C352.602 51.5451 351.72 51.4029 350.966 51.4029C350.213 51.4029 349.601 51.538 349.132 51.8082C348.663 52.0784 348.428 52.505 348.428 53.088C348.428 54.3678 349.153 55.0077 350.604 55.0077C351.428 55.0077 352.132 54.7162 352.715 54.1332C353.313 53.5359 353.611 52.7681 353.611 51.8295ZM364.566 55.7756C363.343 56.3444 362.226 56.4653 361.217 56.1382C360.492 55.9107 359.98 55.4343 359.681 54.7091C359.525 54.3536 359.446 53.927 359.446 53.4293V47.1583H357.804V45.8785H359.446V43.0416H361.11V45.8785H364.31V47.1583H361.11V53.408C361.11 54.446 361.594 54.9651 362.561 54.9651C363.087 54.9651 363.677 54.8371 364.331 54.5811L364.566 55.7756ZM367.359 45.8571H369.044V56.0742H367.359V45.8571ZM368.191 43.4682C367.85 43.4682 367.58 43.3758 367.381 43.1909C367.196 42.9918 367.103 42.7359 367.103 42.423C367.103 42.096 367.196 41.84 367.381 41.6551C367.58 41.4561 367.85 41.3565 368.191 41.3565C368.533 41.3565 368.803 41.4561 369.002 41.6551C369.215 41.84 369.322 42.096 369.322 42.423C369.322 42.7359 369.215 42.9918 369.002 43.1909C368.803 43.3758 368.533 43.4682 368.191 43.4682ZM377.018 45.6225C378.227 45.6225 379.187 45.9354 379.898 46.561C380.609 47.1725 381.071 47.9404 381.284 48.8647L379.578 49.014C379.393 48.4167 379.094 47.9546 378.682 47.6275C378.27 47.2863 377.815 47.1156 377.317 47.1156C376.407 47.1156 375.667 47.4569 375.099 48.1395C374.544 48.822 374.267 49.7534 374.267 50.9337C374.267 52.0997 374.537 53.0382 375.077 53.7492C375.632 54.4602 376.314 54.8157 377.125 54.8157C377.95 54.8157 378.561 54.6309 378.959 54.2612C379.372 53.8772 379.578 53.3369 379.578 52.6401H381.306C381.306 53.735 380.922 54.6238 380.154 55.3063C379.4 55.9747 378.412 56.3088 377.189 56.3088C375.895 56.3088 374.793 55.8183 373.883 54.8371C372.987 53.8559 372.539 52.5548 372.539 50.9337C372.539 49.2984 372.987 48.0044 373.883 47.0516C374.779 46.0989 375.824 45.6225 377.018 45.6225ZM384.071 48.3741C384.071 47.5351 384.426 46.8668 385.137 46.3691C385.863 45.8714 386.837 45.6225 388.06 45.6225C389.283 45.6225 390.235 45.8785 390.918 46.3904C391.615 46.9023 391.977 47.5493 392.006 48.3314H390.363C390.235 47.4071 389.453 46.945 388.017 46.945C387.32 46.945 386.78 47.1014 386.396 47.4142C386.026 47.7271 385.841 48.0684 385.841 48.4381C385.841 48.7936 385.984 49.0993 386.268 49.3553C386.552 49.597 387.007 49.8103 387.633 49.9952L389.681 50.6777C390.548 50.9479 391.209 51.2963 391.664 51.7229C392.134 52.1353 392.368 52.7112 392.368 53.4506C392.368 54.1758 391.992 54.8371 391.238 55.4343C390.484 56.0173 389.432 56.3088 388.081 56.3088C386.73 56.3088 385.678 56.0102 384.924 55.413C384.171 54.8015 383.772 54.0194 383.73 53.0667H385.351C385.379 53.7066 385.635 54.1901 386.119 54.5171C386.616 54.83 387.235 54.9864 387.974 54.9864C388.714 54.9864 389.325 54.83 389.809 54.5171C390.292 54.2043 390.534 53.8346 390.534 53.408C390.534 52.9671 390.392 52.633 390.107 52.4055C389.823 52.1779 389.361 51.9789 388.721 51.8082L386.737 51.147C384.96 50.6208 384.071 49.6965 384.071 48.3741ZM245.855 68.6576H254.109V70.1081H247.54V74.6087H253.725V76.0378H247.54V80.6024H254.109V82.0742H245.855V68.6576ZM266.044 82.0742H263.996L261.074 78.2135L258.301 82.0742H256.253L260.114 76.9763L256.253 71.8571H258.301L261.223 75.6965L264.018 71.8571H266.065L262.162 76.9763L266.044 82.0742ZM274.101 81.7756C272.878 82.3444 271.761 82.4653 270.752 82.1382C270.027 81.9107 269.515 81.4343 269.216 80.7091C269.06 80.3536 268.981 79.927 268.981 79.4293V73.1583H267.339V71.8785H268.981V69.0416H270.645V71.8785H273.845V73.1583H270.645V79.408C270.645 80.446 271.129 80.9651 272.096 80.9651C272.622 80.9651 273.212 80.8371 273.866 80.5811L274.101 81.7756ZM280.307 80.9437C281.715 80.9437 282.518 80.3252 282.717 79.088H284.445C284.289 80.1119 283.834 80.9082 283.08 81.477C282.341 82.0316 281.416 82.3088 280.307 82.3088C278.942 82.3088 277.833 81.8254 276.98 80.8584C276.127 79.8772 275.7 78.5761 275.7 76.955C275.7 75.3339 276.127 74.0399 276.98 73.073C277.847 72.106 278.992 71.6225 280.414 71.6225C281.85 71.6225 282.917 72.1771 283.613 73.2863C284.324 74.3954 284.573 75.7463 284.36 77.339H277.385C277.385 78.3912 277.641 79.2587 278.153 79.9412C278.665 80.6096 279.383 80.9437 280.307 80.9437ZM281.544 73.2223C281.217 73.0516 280.819 72.9663 280.35 72.9663C279.482 72.9663 278.793 73.2649 278.281 73.8622C277.783 74.4452 277.492 75.1775 277.406 76.0592H282.845C282.845 74.6372 282.412 73.6915 281.544 73.2223ZM289.386 73.8408C290.055 72.362 291.199 71.6225 292.82 71.6225C294.029 71.6225 294.968 72.0207 295.636 72.817C296.319 73.6133 296.66 74.7011 296.66 76.0805V82.0742H294.996V76.0805C294.996 75.0993 294.761 74.3599 294.292 73.8622C293.837 73.3645 293.183 73.1156 292.33 73.1156C291.477 73.1156 290.787 73.464 290.261 74.1608C289.735 74.8576 289.457 75.8245 289.429 77.0617V82.0742H287.744V71.8785H289.194L289.386 73.8408ZM300.084 74.3741C300.084 73.5351 300.44 72.8668 301.151 72.3691C301.876 71.8714 302.85 71.6225 304.073 71.6225C305.296 71.6225 306.248 71.8785 306.931 72.3904C307.628 72.9023 307.99 73.5493 308.019 74.3314H306.376C306.248 73.4071 305.466 72.945 304.03 72.945C303.333 72.945 302.793 73.1014 302.409 73.4142C302.039 73.7271 301.854 74.0684 301.854 74.4381C301.854 74.7936 301.997 75.0993 302.281 75.3553C302.565 75.597 303.021 75.8103 303.646 75.9952L305.694 76.6777C306.561 76.9479 307.223 77.2963 307.678 77.7229C308.147 78.1353 308.381 78.7112 308.381 79.4506C308.381 80.1758 308.005 80.8371 307.251 81.4343C306.497 82.0173 305.445 82.3088 304.094 82.3088C302.743 82.3088 301.691 82.0102 300.937 81.413C300.184 80.8015 299.785 80.0194 299.743 79.0667H301.364C301.392 79.7066 301.648 80.1901 302.132 80.5171C302.629 80.83 303.248 80.9864 303.987 80.9864C304.727 80.9864 305.338 80.83 305.822 80.5171C306.305 80.2043 306.547 79.8346 306.547 79.408C306.547 78.9671 306.405 78.633 306.12 78.4055C305.836 78.1779 305.374 77.9789 304.734 77.8082L302.75 77.147C300.973 76.6208 300.084 75.6965 300.084 74.3741ZM311.951 71.8571H313.636V82.0742H311.951V71.8571ZM312.783 69.4682C312.442 69.4682 312.172 69.3758 311.973 69.1909C311.788 68.9918 311.695 68.7359 311.695 68.423C311.695 68.096 311.788 67.84 311.973 67.6551C312.172 67.4561 312.442 67.3565 312.783 67.3565C313.125 67.3565 313.395 67.4561 313.594 67.6551C313.807 67.84 313.914 68.096 313.914 68.423C313.914 68.7359 313.807 68.9918 313.594 69.1909C313.395 69.3758 313.125 69.4682 312.783 69.4682ZM321.888 71.6225C323.31 71.6225 324.454 72.0847 325.322 73.009C326.203 73.9333 326.644 75.2557 326.644 76.9763C326.644 78.6827 326.203 79.9981 325.322 80.9224C324.454 81.8467 323.31 82.3088 321.888 82.3088C320.466 82.3088 319.314 81.8467 318.432 80.9224C317.565 79.9981 317.131 78.6827 317.131 76.9763C317.131 75.2557 317.565 73.9333 318.432 73.009C319.314 72.0847 320.466 71.6225 321.888 71.6225ZM324.938 76.9763C324.938 75.7534 324.682 74.8007 324.17 74.1181C323.658 73.4213 322.904 73.073 321.909 73.073C320.928 73.073 320.174 73.4213 319.648 74.1181C319.122 74.8007 318.859 75.7534 318.859 76.9763C318.859 78.185 319.108 79.1378 319.605 79.8346C320.103 80.5171 320.842 80.8584 321.824 80.8584C322.819 80.8584 323.587 80.5171 324.127 79.8346C324.668 79.1378 324.938 78.185 324.938 76.9763ZM331.484 73.8408C332.152 72.362 333.297 71.6225 334.918 71.6225C336.127 71.6225 337.065 72.0207 337.734 72.817C338.416 73.6133 338.757 74.7011 338.757 76.0805V82.0742H337.094V76.0805C337.094 75.0993 336.859 74.3599 336.39 73.8622C335.935 73.3645 335.281 73.1156 334.427 73.1156C333.574 73.1156 332.885 73.464 332.358 74.1608C331.832 74.8576 331.555 75.8245 331.527 77.0617V82.0742H329.841V71.8785H331.292L331.484 73.8408ZM348.693 80.5171H356.479V82.0742H347.008V80.0905C347.008 78.5121 347.606 77.3532 348.8 76.6137C349.184 76.372 349.611 76.1587 350.08 75.9738L352.725 74.9073C354.09 74.367 354.772 73.4782 354.772 72.2411C354.772 71.5585 354.538 71.0039 354.069 70.5773C353.599 70.1365 352.938 69.9161 352.085 69.9161C351.246 69.9161 350.556 70.0939 350.016 70.4494C349.49 70.8049 349.184 71.3381 349.099 72.0491H347.243C347.314 70.8831 347.783 69.9872 348.651 69.3615C349.518 68.7359 350.627 68.423 351.978 68.423C353.343 68.423 354.452 68.7927 355.306 69.5322C356.159 70.2716 356.585 71.1888 356.585 72.2837C356.585 73.3645 356.301 74.2248 355.732 74.8647C355.178 75.5046 354.41 76.0165 353.429 76.4004L350.72 77.4883C350.037 77.7727 349.525 78.0997 349.184 78.4694C348.857 78.8249 348.693 79.2942 348.693 79.8772V80.5171ZM367.663 68.6576L372.185 77.7442L376.665 68.6576H379.032V82.0742H377.347V71.0466L372.74 80.3891H371.609L366.938 70.8973V82.0742H365.253V68.6576H367.663ZM389.647 75.4619C389.647 74.5376 389.455 73.8764 389.071 73.4782C388.687 73.0801 388.126 72.881 387.386 72.881C386.661 72.881 386.071 73.0303 385.616 73.3289C385.175 73.6133 384.955 74.0684 384.955 74.694H383.099C383.099 73.1298 383.938 72.1629 385.616 71.7932C386.128 71.6794 386.682 71.6225 387.28 71.6225C388.545 71.6225 389.534 71.9425 390.245 72.5824C390.956 73.2223 391.311 74.1963 391.311 75.5046V82.0742H389.861L389.69 80.3678C389.064 81.6618 387.934 82.3088 386.298 82.3088C385.204 82.3088 384.322 82.0031 383.654 81.3917C382.999 80.7802 382.672 80.0194 382.672 79.1093C382.672 78.1993 383.035 77.4883 383.76 76.9763C384.5 76.4644 385.417 76.2085 386.512 76.2085C387.607 76.2085 388.652 76.3933 389.647 76.763V75.4619ZM389.647 77.8295C388.638 77.5451 387.756 77.4029 387.002 77.4029C386.249 77.4029 385.637 77.538 385.168 77.8082C384.699 78.0784 384.464 78.505 384.464 79.088C384.464 80.3678 385.189 81.0077 386.64 81.0077C387.465 81.0077 388.168 80.7162 388.751 80.1332C389.349 79.5359 389.647 78.7681 389.647 77.8295ZM399.429 73.3076C397.822 73.3076 396.99 74.5732 396.933 77.1043V82.0742H395.248V71.8571H396.933V73.8195C397.445 72.3975 398.348 71.6865 399.642 71.6865C400.054 71.6865 400.445 71.7505 400.815 71.8785L400.73 73.5209C400.303 73.3787 399.869 73.3076 399.429 73.3076ZM406.443 76.6777L405.078 77.7869V82.0742H403.393V67.5485H405.078V75.9952L410.005 71.8785H412.352L407.659 75.6965L412.586 82.0742H410.517L406.443 76.6777Z" fill="black"/>
<defs>
<filter id="filter0_d" x="0" y="0.899902" width="220" height="221.243" filterUnits="userSpaceOnUse" color-interpolation-filters="sRGB">
<feFlood flood-opacity="0" result="BackgroundImageFix"/>
<feColorMatrix in="SourceAlpha" type="matrix" values="0 0 0 0 0 0 0 0 0 0 0 0 0 0 0 0 0 0 127 0" result="hardAlpha"/>
<feOffset dy="4"/>
<feGaussianBlur stdDeviation="2"/>
<feComposite in2="hardAlpha" operator="out"/>
<feColorMatrix type="matrix" values="0 0 0 0 0 0 0 0 0 0 0 0 0 0 0 0 0 0 0.25 0"/>
<feBlend mode="normal" in2="BackgroundImageFix" result="effect1_dropShadow"/>
<feBlend mode="normal" in="SourceGraphic" in2="effect1_dropShadow" result="shape"/>
</filter>
<filter id="filter1_d" x="212" y="0.899902" width="220" height="221.243" filterUnits="userSpaceOnUse" color-interpolation-filters="sRGB">
<feFlood flood-opacity="0" result="BackgroundImageFix"/>
<feColorMatrix in="SourceAlpha" type="matrix" values="0 0 0 0 0 0 0 0 0 0 0 0 0 0 0 0 0 0 127 0" result="hardAlpha"/>
<feOffset dy="4"/>
<feGaussianBlur stdDeviation="2"/>
<feComposite in2="hardAlpha" operator="out"/>
<feColorMatrix type="matrix" values="0 0 0 0 0 0 0 0 0 0 0 0 0 0 0 0 0 0 0.25 0"/>
<feBlend mode="normal" in2="BackgroundImageFix" result="effect1_dropShadow"/>
<feBlend mode="normal" in="SourceGraphic" in2="effect1_dropShadow" result="shape"/>
</filter>
</defs>
</svg>
