<svg width="101" height="99" viewBox="0 0 101 99" fill="none" xmlns="http://www.w3.org/2000/svg">
<g clip-path="url(#clip0_93:6)">
<path fill-rule="evenodd" clip-rule="evenodd" d="M50.4159 70.125C46.4918 70.1704 44.0869 73.821 42.2283 76.758C38.2339 83.0899 33.9083 89.7971 30.1871 95.4401C28.8956 97.3995 27.4965 98.9835 25.1412 99C22.7818 99.0165 20.7867 96.1744 21.925 93.7819C24.9508 87.4335 38.089 64.5892 38.089 45.375C38.089 38.7214 34.5375 37.125 29.8104 37.125H13.2531C10.9682 37.125 9.11377 35.277 9.11377 33C9.11377 30.723 10.9682 28.875 13.2531 28.875H87.7609C90.0499 28.875 91.9002 30.7271 91.9002 33C91.9002 35.2729 90.0499 37.125 87.7609 37.125H71.2036C66.4806 37.125 62.9249 38.7214 62.9249 45.375C62.9249 64.5892 76.0673 87.4335 79.0931 93.7819C80.2315 96.1744 78.2363 99.0165 75.8769 99C73.5216 98.9835 72.1184 97.3995 70.8311 95.4401C67.1098 89.7971 62.7842 83.0899 58.7856 76.758C56.9188 73.8004 54.489 70.1126 50.507 70.125H50.4159ZM50.507 0C57.3658 0 62.9249 5.544 62.9249 12.375C62.9249 19.206 57.3658 24.75 50.507 24.75C43.6564 24.75 38.089 19.206 38.089 12.375C38.089 5.544 43.6564 0 50.507 0Z" fill="#CF622A"/>
</g>
<defs>
<clipPath id="clip0_93:6">
<rect width="99.3437" height="99" fill="white" transform="translate(0.65918)"/>
</clipPath>
</defs>
</svg>
