<svg width="230" height="163" viewBox="0 0 230 163" fill="none" xmlns="http://www.w3.org/2000/svg">
<g clip-path="url(#clip0_276:3)">
<path fill-rule="evenodd" clip-rule="evenodd" d="M188.618 139.375C185.415 139.412 183.451 142.399 181.934 144.802C178.673 149.983 175.142 155.47 172.105 160.087C171.05 161.691 169.908 162.987 167.985 163C166.059 163.014 164.431 160.688 165.36 158.731C167.83 153.537 178.555 134.846 178.555 119.125C178.555 113.681 175.656 112.375 171.797 112.375H158.281C156.416 112.375 154.902 110.863 154.902 109C154.902 107.137 156.416 105.625 158.281 105.625H219.104C220.972 105.625 222.483 107.14 222.483 109C222.483 110.86 220.972 112.375 219.104 112.375H205.587C201.732 112.375 198.829 113.681 198.829 119.125C198.829 134.846 209.558 153.537 212.028 158.731C212.957 160.688 211.328 163.014 209.402 163C207.48 162.987 206.334 161.691 205.283 160.087C202.246 155.47 198.714 149.983 195.45 144.802C193.926 142.382 191.943 139.365 188.692 139.375H188.618ZM188.692 82C194.291 82 198.829 86.536 198.829 92.125C198.829 97.714 194.291 102.25 188.692 102.25C183.1 102.25 178.555 97.714 178.555 92.125C178.555 86.536 183.1 82 188.692 82Z" fill="#CF622A"/>
</g>
<g clip-path="url(#clip1_276:3)">
<path fill-rule="evenodd" clip-rule="evenodd" d="M40.6179 58.375C37.4146 58.4121 35.4513 61.399 33.9342 63.802C30.6734 68.9826 27.1423 74.4704 24.1045 79.0874C23.0503 80.6905 21.9082 81.9865 19.9855 82C18.0594 82.0135 16.4307 79.6881 17.36 77.7306C19.8301 72.5365 30.5551 53.8458 30.5551 38.125C30.5551 32.6811 27.6559 31.375 23.797 31.375H10.2809C8.41566 31.375 6.90186 29.863 6.90186 28C6.90186 26.137 8.41566 24.625 10.2809 24.625H71.1036C72.9722 24.625 74.4826 26.1404 74.4826 28C74.4826 29.8596 72.9722 31.375 71.1036 31.375H57.5874C53.7319 31.375 50.8293 32.6811 50.8293 38.125C50.8293 53.8458 61.5578 72.5365 64.0279 77.7306C64.9571 79.6881 63.3284 82.0135 61.4023 82C59.4797 81.9865 58.3342 80.6905 57.2833 79.0874C54.2455 74.4704 50.7145 68.9826 47.4503 63.802C45.9264 61.3821 43.9429 58.3649 40.6922 58.375H40.6179ZM40.6922 1C46.2913 1 50.8293 5.536 50.8293 11.125C50.8293 16.714 46.2913 21.25 40.6922 21.25C35.0999 21.25 30.5551 16.714 30.5551 11.125C30.5551 5.536 35.0999 1 40.6922 1Z" fill="#CF622A"/>
</g>
<g clip-path="url(#clip2_276:3)">
<path fill-rule="evenodd" clip-rule="evenodd" d="M40.6179 139.375C37.4146 139.412 35.4513 142.399 33.9342 144.802C30.6734 149.983 27.1423 155.47 24.1045 160.087C23.0503 161.691 21.9082 162.987 19.9855 163C18.0594 163.014 16.4307 160.688 17.36 158.731C19.8301 153.537 30.5551 134.846 30.5551 119.125C30.5551 113.681 27.6559 112.375 23.797 112.375H10.2809C8.41566 112.375 6.90186 110.863 6.90186 109C6.90186 107.137 8.41566 105.625 10.2809 105.625H71.1036C72.9722 105.625 74.4826 107.14 74.4826 109C74.4826 110.86 72.9722 112.375 71.1036 112.375H57.5874C53.7319 112.375 50.8293 113.681 50.8293 119.125C50.8293 134.846 61.5578 153.537 64.0279 158.731C64.9571 160.688 63.3284 163.014 61.4023 163C59.4797 162.987 58.3342 161.691 57.2833 160.087C54.2455 155.47 50.7145 149.983 47.4503 144.802C45.9264 142.382 43.9429 139.365 40.6922 139.375H40.6179ZM40.6922 82C46.2913 82 50.8293 86.536 50.8293 92.125C50.8293 97.714 46.2913 102.25 40.6922 102.25C35.0999 102.25 30.5551 97.714 30.5551 92.125C30.5551 86.536 35.0999 82 40.6922 82Z" fill="#CF622A"/>
</g>
<g clip-path="url(#clip3_276:3)">
<path fill-rule="evenodd" clip-rule="evenodd" d="M114.618 139.375C111.415 139.412 109.451 142.399 107.934 144.802C104.673 149.983 101.142 155.47 98.1045 160.087C97.0503 161.691 95.9082 162.987 93.9855 163C92.0594 163.014 90.4307 160.688 91.36 158.731C93.8301 153.537 104.555 134.846 104.555 119.125C104.555 113.681 101.656 112.375 97.797 112.375H84.2809C82.4157 112.375 80.9019 110.863 80.9019 109C80.9019 107.137 82.4157 105.625 84.2809 105.625H145.104C146.972 105.625 148.483 107.14 148.483 109C148.483 110.86 146.972 112.375 145.104 112.375H131.587C127.732 112.375 124.829 113.681 124.829 119.125C124.829 134.846 135.558 153.537 138.028 158.731C138.957 160.688 137.328 163.014 135.402 163C133.48 162.987 132.334 161.691 131.283 160.087C128.246 155.47 124.714 149.983 121.45 144.802C119.926 142.382 117.943 139.365 114.692 139.375H114.618ZM114.692 82C120.291 82 124.829 86.536 124.829 92.125C124.829 97.714 120.291 102.25 114.692 102.25C109.1 102.25 104.555 97.714 104.555 92.125C104.555 86.536 109.1 82 114.692 82Z" fill="#CF622A"/>
</g>
<g clip-path="url(#clip4_276:3)">
<path fill-rule="evenodd" clip-rule="evenodd" d="M114.684 58.375C111.48 58.4121 109.517 61.399 108 63.802C104.739 68.9826 101.208 74.4704 98.1705 79.0874C97.1162 80.6905 95.9741 81.9865 94.0514 82C92.1254 82.0135 90.4967 79.6881 91.4259 77.7306C93.896 72.5365 104.621 53.8458 104.621 38.125C104.621 32.6811 101.722 31.375 97.863 31.375H84.3468C82.4816 31.375 80.9678 29.863 80.9678 28C80.9678 26.137 82.4816 24.625 84.3468 24.625H145.169C147.038 24.625 148.549 26.1404 148.549 28C148.549 29.8596 147.038 31.375 145.169 31.375H131.653C127.798 31.375 124.895 32.6811 124.895 38.125C124.895 53.8458 135.624 72.5365 138.094 77.7306C139.023 79.6881 137.394 82.0135 135.468 82C133.546 81.9865 132.4 80.6905 131.349 79.0874C128.311 74.4704 124.78 68.9826 121.516 63.802C119.992 61.3821 118.009 58.3649 114.758 58.375H114.684ZM114.758 1C120.357 1 124.895 5.536 124.895 11.125C124.895 16.714 120.357 21.25 114.758 21.25C109.166 21.25 104.621 16.714 104.621 11.125C104.621 5.536 109.166 1 114.758 1Z" fill="#CF622A"/>
</g>
<g clip-path="url(#clip5_276:3)">
<path fill-rule="evenodd" clip-rule="evenodd" d="M188.618 57.375C185.415 57.4121 183.451 60.399 181.934 62.802C178.673 67.9826 175.142 73.4704 172.105 78.0874C171.05 79.6905 169.908 80.9865 167.985 81C166.059 81.0135 164.431 78.6881 165.36 76.7306C167.83 71.5365 178.555 52.8458 178.555 37.125C178.555 31.6811 175.656 30.375 171.797 30.375H158.281C156.416 30.375 154.902 28.863 154.902 27C154.902 25.137 156.416 23.625 158.281 23.625H219.104C220.972 23.625 222.483 25.1404 222.483 27C222.483 28.8596 220.972 30.375 219.104 30.375H205.587C201.732 30.375 198.829 31.6811 198.829 37.125C198.829 52.8458 209.558 71.5365 212.028 76.7306C212.957 78.6881 211.328 81.0135 209.402 81C207.48 80.9865 206.334 79.6905 205.283 78.0874C202.246 73.4704 198.714 67.9826 195.45 62.802C193.926 60.3821 191.943 57.3649 188.692 57.375H188.618ZM188.692 0C194.291 0 198.829 4.536 198.829 10.125C198.829 15.714 194.291 20.25 188.692 20.25C183.1 20.25 178.555 15.714 178.555 10.125C178.555 4.536 183.1 0 188.692 0Z" fill="#CF622A"/>
</g>
<defs>
<clipPath id="clip0_276:3">
<rect width="81.0969" height="81" fill="white" transform="translate(148 82)"/>
</clipPath>
<clipPath id="clip1_276:3">
<rect width="81.0969" height="81" fill="white" transform="translate(0 1)"/>
</clipPath>
<clipPath id="clip2_276:3">
<rect width="81.0969" height="81" fill="white" transform="translate(0 82)"/>
</clipPath>
<clipPath id="clip3_276:3">
<rect width="81.0969" height="81" fill="white" transform="translate(74 82)"/>
</clipPath>
<clipPath id="clip4_276:3">
<rect width="81.0969" height="81" fill="white" transform="translate(74.0659 1)"/>
</clipPath>
<clipPath id="clip5_276:3">
<rect width="81.0969" height="81" fill="white" transform="translate(148)"/>
</clipPath>
</defs>
</svg>
