<svg width="161" height="99" viewBox="0 0 161 99" fill="none" xmlns="http://www.w3.org/2000/svg">
<g clip-path="url(#clip0_276:2)">
<path fill-rule="evenodd" clip-rule="evenodd" d="M50.3104 70.125C46.3864 70.1704 43.9814 73.821 42.1229 76.758C38.1284 83.0899 33.8028 89.7971 30.0816 95.4401C28.7901 97.3995 27.391 98.9835 25.0358 99C22.6763 99.0165 20.6812 96.1744 21.8195 93.7819C24.8453 87.4335 37.9836 64.5892 37.9836 45.375C37.9836 38.7214 34.432 37.125 29.7049 37.125H13.1476C10.8627 37.125 9.0083 35.277 9.0083 33C9.0083 30.723 10.8627 28.875 13.1476 28.875H87.6554C89.9445 28.875 91.7947 30.7271 91.7947 33C91.7947 35.2729 89.9445 37.125 87.6554 37.125H71.0981C66.3752 37.125 62.8195 38.7214 62.8195 45.375C62.8195 64.5892 75.9618 87.4335 78.9877 93.7819C80.126 96.1744 78.1308 99.0165 75.7714 99C73.4161 98.9835 72.0129 97.3995 70.7256 95.4401C67.0043 89.7971 62.6787 83.0899 58.6802 76.758C56.8133 73.8004 54.3835 70.1126 50.4015 70.125H50.3104ZM50.4015 0C57.2604 0 62.8195 5.544 62.8195 12.375C62.8195 19.206 57.2604 24.75 50.4015 24.75C43.5509 24.75 37.9836 19.206 37.9836 12.375C37.9836 5.544 43.5509 0 50.4015 0Z" fill="#CF622A"/>
</g>
<g clip-path="url(#clip1_276:2)">
<path fill-rule="evenodd" clip-rule="evenodd" d="M111.134 70.125C107.21 70.1704 104.805 73.821 102.946 76.758C98.9517 83.0899 94.6261 89.7971 90.9048 95.4401C89.6134 97.3995 88.2143 98.9835 85.859 99C83.4996 99.0165 81.5044 96.1744 82.6427 93.7819C85.6686 87.4335 98.8068 64.5892 98.8068 45.375C98.8068 38.7214 95.2553 37.125 90.5281 37.125H73.9709C71.686 37.125 69.8315 35.277 69.8315 33C69.8315 30.723 71.686 28.875 73.9709 28.875H148.479C150.768 28.875 152.618 30.7271 152.618 33C152.618 35.2729 150.768 37.125 148.479 37.125H131.921C127.198 37.125 123.643 38.7214 123.643 45.375C123.643 64.5892 136.785 87.4335 139.811 93.7819C140.949 96.1744 138.954 99.0165 136.595 99C134.239 98.9835 132.836 97.3995 131.549 95.4401C127.828 89.7971 123.502 83.0899 119.503 76.758C117.637 73.8004 115.207 70.1126 111.225 70.125H111.134ZM111.225 0C118.084 0 123.643 5.544 123.643 12.375C123.643 19.206 118.084 24.75 111.225 24.75C104.374 24.75 98.8068 19.206 98.8068 12.375C98.8068 5.544 104.374 0 111.225 0Z" fill="#CF622A"/>
</g>
<defs>
<clipPath id="clip0_276:2">
<rect width="99.3437" height="99" fill="white" transform="translate(0.553711)"/>
</clipPath>
<clipPath id="clip1_276:2">
<rect width="99.3437" height="99" fill="white" transform="translate(61.3767)"/>
</clipPath>
</defs>
</svg>
